<?xml version="1.0" encoding="UTF-8"?>
<!DOCTYPE svg PUBLIC "-//W3C//DTD SVG 1.1//EN" "http://www.w3.org/Graphics/SVG/1.1/DTD/svg11.dtd">
<!-- Creator: CorelDRAW 2018 (64-Bit Evaluation Version) -->
<svg xmlns="http://www.w3.org/2000/svg" xml:space="preserve" width="8.5in" height="11in" version="1.1" style="shape-rendering:geometricPrecision; text-rendering:geometricPrecision; image-rendering:optimizeQuality; fill-rule:evenodd; clip-rule:evenodd"
viewBox="0 0 8500 11000"
 xmlns:xlink="http://www.w3.org/1999/xlink">
 <defs>
  <style type="text/css">
   <![CDATA[
    .fil44 {fill:none}
    .fil7 {fill:none;fill-rule:nonzero}
    .fil6 {fill:#F58634}
    .fil41 {fill:#91356F}
    .fil42 {fill:#2C3C43}
    .fil43 {fill:#2C3C43}
    .fil1 {fill:#FEFEFE;fill-rule:nonzero}
    .fil38 {fill:#FEFEFE;fill-rule:nonzero}
    .fil9 {fill:#E6E7E8;fill-rule:nonzero}
    .fil21 {fill:#E6E7E8;fill-rule:nonzero}
    .fil36 {fill:#F69FA5;fill-rule:nonzero}
    .fil37 {fill:#F48E92;fill-rule:nonzero}
    .fil28 {fill:#F58634;fill-rule:nonzero}
    .fil23 {fill:#F58634;fill-rule:nonzero}
    .fil39 {fill:#EC268F;fill-rule:nonzero}
    .fil14 {fill:#EC268F;fill-rule:nonzero}
    .fil32 {fill:#F9F8F8;fill-rule:nonzero}
    .fil24 {fill:#F7F7F6;fill-rule:nonzero}
    .fil5 {fill:#EFEFEF;fill-rule:nonzero}
    .fil22 {fill:#E5AFCF;fill-rule:nonzero}
    .fil15 {fill:#E5AFCF;fill-rule:nonzero}
    .fil25 {fill:#EAEAE9;fill-rule:nonzero}
    .fil18 {fill:#E5E6E5;fill-rule:nonzero}
    .fil26 {fill:#DDE0DF;fill-rule:nonzero}
    .fil8 {fill:#D9DAD9;fill-rule:nonzero}
    .fil29 {fill:#D4D6D5;fill-rule:nonzero}
    .fil20 {fill:#CBCECE;fill-rule:nonzero}
    .fil16 {fill:#A8518A;fill-rule:nonzero}
    .fil27 {fill:#C0C1C2;fill-rule:nonzero}
    .fil13 {fill:#ABAEAF;fill-rule:nonzero}
    .fil30 {fill:#A73471;fill-rule:nonzero}
    .fil12 {fill:#A73471;fill-rule:nonzero}
    .fil11 {fill:#919697;fill-rule:nonzero}
    .fil33 {fill:#91356F;fill-rule:nonzero}
    .fil40 {fill:#672D50;fill-rule:nonzero}
    .fil17 {fill:#42616A;fill-rule:nonzero}
    .fil19 {fill:#3D5860;fill-rule:nonzero}
    .fil10 {fill:#00B3A9;fill-rule:nonzero}
    .fil35 {fill:#2C3C43;fill-rule:nonzero}
    .fil31 {fill:#FFA412;fill-rule:nonzero}
    .fil34 {fill:url(#id1);fill-rule:nonzero}
    .fil2 {fill:url(#id2);fill-rule:nonzero}
    .fil4 {fill:url(#id3);fill-rule:nonzero}
    .fil0 {fill:url(#id4);fill-rule:nonzero}
    .fil3 {fill:url(#id5);fill-rule:nonzero}
   ]]>
  </style>
   <clipPath id="id0" style="clip-rule:nonzero">
    <path d="M6239.69 8644.14c638.83,-349.67 958.29,-807.97 958.38,-1266.28l0 -0.36c-0.09,-458.31 -319.54,-916.61 -958.37,-1266.29 -1277.81,-699.44 -3349.59,-699.44 -4627.43,0.02 -638.92,349.73 -958.37,808.1 -958.37,1266.47 -0,458.37 319.45,916.74 958.36,1266.46 1277.83,699.44 3349.6,699.44 4627.43,-0.02z"/>
   </clipPath>
  <linearGradient id="id1" gradientUnits="userSpaceOnUse" x1="3905.72" y1="7709.07" x2="4923.54" y2="7709.07">
   <stop offset="0" style="stop-opacity:1; stop-color:#C5236E"/>
   <stop offset="1" style="stop-opacity:1; stop-color:#6A246D"/>
  </linearGradient>
  <linearGradient id="id2" gradientUnits="userSpaceOnUse" x1="6382.61" y1="6209.63" x2="8689.57" y2="6209.63">
   <stop offset="0" style="stop-opacity:1; stop-color:#F26B35"/>
   <stop offset="1" style="stop-opacity:1; stop-color:#FBEE1E"/>
  </linearGradient>
  <linearGradient id="id3" gradientUnits="userSpaceOnUse" xlink:href="#id2" x1="-177.7" y1="7173.24" x2="2129.26" y2="7173.24">
  </linearGradient>
  <linearGradient id="id4" gradientUnits="userSpaceOnUse" x1="7688.77" y1="5325.28" x2="6190.99" y2="5680.91">
   <stop offset="0" style="stop-opacity:1; stop-color:#F9A132"/>
   <stop offset="1" style="stop-opacity:1; stop-color:#FFF200"/>
  </linearGradient>
  <linearGradient id="id5" gradientUnits="userSpaceOnUse" xlink:href="#id4" x1="2320.89" y1="6288.89" x2="823.11" y2="6644.51">
  </linearGradient>
 </defs>
 <g id="Layer_x0020_1">
  <metadata id="CorelCorpID_0Corel-Layer"/>
  <g id="_696948528">
   <g>
    <path class="fil0" d="M6399.73 6634.67c12.68,-69.61 32.02,-146.33 69.49,-206.36 43.43,-69.59 124.7,-122.09 186.8,-176.18 8.99,-7.76 18.12,-15.78 23.96,-26.15 10.92,-19.5 8.31,-43.4 5.24,-65.56 -12.41,-90.11 -26.97,-180.65 -27.41,-271.45 -0.04,-14.13 0.21,-28.31 0.92,-42.5 5.06,-105.03 34.53,-212.35 103.24,-291.99 26.24,-30.45 57.56,-56.16 90.2,-79.49 84.04,-60.09 178.33,-105.72 277.49,-134.63 134.26,-205.41 286.52,-398.53 433.27,-595.39 73.2,-96.48 103.18,-184.35 103.21,-260.54 0.08,-175.33 -158.7,-288.33 -314.02,-299.76 -23.16,-1.69 -45.84,-2.48 -68.18,-2.48 -800.66,0 -1070.15,1074.55 -1070.3,1864.48 -0.02,163.37 11.48,314.58 32.17,441.56 1.1,6.75 2.2,13.39 3.34,19.99 2.53,14.65 142.73,301.06 145.63,315.77l4.96 -189.33z"/>
    <path class="fil1" d="M6566.78 6424.65c13.9,-4.05 22.06,-18.5 18.18,-32.52 -246.98,-896.94 433.35,-1866.62 625.9,-2016.82 11.57,-9.08 13.61,-25.77 4.61,-37.29 -9.06,-11.64 -25.7,-13.45 -37.28,-4.63 -198.42,154.82 -899.22,1147.55 -644.45,2072.8 3.9,14.14 18.54,22.48 32.65,18.6l0.39 -0.15z"/>
   </g>
   <g>
    <path class="fil2" d="M6657.81 5888.98c-0.04,-14.13 0.21,-28.31 0.92,-42.5 5.06,-105.03 34.53,-212.35 103.24,-291.99 26.24,-30.45 57.56,-56.16 90.2,-79.49 118.12,-84.47 256.51,-140.32 400.14,-161.46 64.61,-9.46 130.74,-12.21 192.88,-32.24 180.59,-58.34 319.33,-233.24 474.49,-337.32 176.43,-118.31 605.11,-223.74 749.24,4.2 105.02,166.03 -214.17,383.7 -429.58,603.72 -215.37,220 -336.03,439.64 -180.57,650.41 133.16,180.59 166.97,364.63 -115,561 -250.52,174.41 -608.49,131.18 -617.93,440.65 -5.39,176.39 -198.41,442.84 -491.74,396.41 -100.14,-15.84 -218.93,-134.37 -279.22,-209.76 -68.3,-85.33 -109.64,-183.93 -136.81,-289.02 -38.19,-147.59 -46.48,-306.56 -20.13,-456.86 12.67,-72.22 32,-153.45 71.3,-216.41 43.43,-69.59 124.7,-122.09 186.8,-176.18 8.99,-7.76 18.12,-15.78 23.96,-26.15 10.92,-19.5 8.31,-43.4 5.24,-65.56 -12.41,-90.11 -26.97,-180.65 -27.41,-271.45z"/>
    <path class="fil1" d="M6742.4 7139.03c10.56,-3.09 18.52,-12.53 19.1,-24.13 43.93,-851.14 1123.13,-1895.72 1566.95,-2108.78 13.22,-6.31 18.81,-22.2 12.47,-35.44 -6.37,-13.28 -22.58,-18.8 -35.39,-12.48 -452.34,217.14 -1552.19,1283.57 -1597.04,2153.89 -0.81,14.67 10.44,27.22 25.07,27.95l8.84 -1.01z"/>
    <path class="fil1" d="M7765.02 6381.61c7.63,-2.19 14.2,-7.86 17.33,-15.83 5.33,-13.66 -1.44,-29.07 -15.11,-34.38 -14.22,-5.53 -352.34,-133.93 -774.79,-20.93l-0.54 0.17c-13.83,4.04 -21.97,18.43 -18.22,32.41 3.8,14.13 18.37,22.57 32.56,18.75 405.72,-108.6 738.42,17.8 741.71,19.13 5.63,2.19 11.64,2.29 17.05,0.69z"/>
   </g>
  </g>
  <g id="_1029643776">
   <g>
    <path class="fil3" d="M2112.15 7598.28c-12.68,-69.61 -32.02,-146.33 -69.49,-206.36 -43.43,-69.59 -124.7,-122.09 -186.8,-176.18 -8.99,-7.76 -18.12,-15.78 -23.96,-26.15 -10.92,-19.5 -8.31,-43.4 -5.24,-65.56 12.41,-90.11 26.97,-180.65 27.41,-271.45 0.04,-14.13 -0.21,-28.31 -0.92,-42.5 -5.06,-105.03 -34.53,-212.35 -103.24,-291.99 -26.24,-30.45 -57.56,-56.16 -90.2,-79.49 -84.04,-60.09 -178.33,-105.72 -277.49,-134.63 -134.26,-205.41 -286.52,-398.53 -433.27,-595.39 -73.2,-96.48 -103.18,-184.35 -103.21,-260.54 -0.08,-175.33 158.7,-288.33 314.02,-299.76 23.16,-1.69 45.84,-2.48 68.18,-2.48 800.66,0 1070.15,1074.55 1070.3,1864.48 0.02,163.37 -11.48,314.58 -32.17,441.56 -1.1,6.75 -2.2,13.39 -3.34,19.99 -2.53,14.65 -142.73,301.06 -145.63,315.77l-4.96 -189.33z"/>
    <path class="fil1" d="M1945.1 7388.26c-13.9,-4.05 -22.06,-18.5 -18.18,-32.52 246.98,-896.94 -433.35,-1866.62 -625.9,-2016.82 -11.57,-9.08 -13.61,-25.77 -4.61,-37.29 9.06,-11.64 25.7,-13.45 37.28,-4.63 198.42,154.82 899.22,1147.55 644.45,2072.8 -3.9,14.14 -18.54,22.48 -32.65,18.6l-0.39 -0.15z"/>
   </g>
   <g>
    <path class="fil4" d="M1854.07 6852.59c0.04,-14.13 -0.21,-28.31 -0.92,-42.5 -5.06,-105.03 -34.53,-212.35 -103.24,-291.99 -26.24,-30.45 -57.56,-56.16 -90.2,-79.49 -118.12,-84.47 -256.51,-140.32 -400.14,-161.46 -64.61,-9.46 -130.74,-12.21 -192.88,-32.24 -180.59,-58.34 -319.33,-233.24 -474.49,-337.32 -176.43,-118.31 -605.11,-223.74 -749.24,4.2 -105.02,166.03 214.17,383.7 429.58,603.72 215.37,220 336.03,439.64 180.57,650.41 -133.16,180.59 -166.97,364.63 115,561 250.52,174.41 608.49,131.18 617.93,440.65 5.39,176.39 198.41,442.84 491.74,396.41 100.14,-15.84 218.93,-134.37 279.22,-209.76 68.3,-85.33 109.64,-183.93 136.81,-289.02 38.19,-147.59 46.48,-306.56 20.13,-456.86 -12.67,-72.22 -32,-153.45 -71.3,-216.41 -43.43,-69.59 -124.7,-122.09 -186.8,-176.18 -8.99,-7.76 -18.12,-15.78 -23.96,-26.15 -10.92,-19.5 -8.31,-43.4 -5.24,-65.56 12.41,-90.11 26.97,-180.65 27.41,-271.45z"/>
    <path class="fil1" d="M1769.48 8102.64c-10.56,-3.09 -18.52,-12.53 -19.1,-24.13 -43.93,-851.14 -1123.13,-1895.72 -1566.95,-2108.78 -13.22,-6.31 -18.81,-22.2 -12.47,-35.44 6.37,-13.28 22.58,-18.8 35.39,-12.48 452.34,217.14 1552.19,1283.57 1597.04,2153.89 0.81,14.67 -10.44,27.22 -25.07,27.95l-8.84 -1.01z"/>
    <path class="fil1" d="M746.86 7345.22c-7.63,-2.19 -14.2,-7.86 -17.33,-15.83 -5.33,-13.66 1.44,-29.07 15.11,-34.38 14.22,-5.53 352.34,-133.93 774.79,-20.93l0.54 0.17c13.83,4.04 21.97,18.43 18.22,32.41 -3.8,14.13 -18.37,22.57 -32.56,18.75 -405.72,-108.6 -738.42,17.8 -741.71,19.13 -5.63,2.19 -11.64,2.29 -17.05,0.69z"/>
   </g>
  </g>
  <path class="fil5" d="M6239.69 8644.14c638.83,-349.67 958.29,-807.97 958.38,-1266.28l0 -0.36c-0.09,-458.31 -319.54,-916.61 -958.37,-1266.29 -1277.81,-699.44 -3349.59,-699.44 -4627.43,0.02 -638.92,349.73 -958.37,808.1 -958.37,1266.47 -0,458.37 319.45,916.74 958.36,1266.46 1277.83,699.44 3349.6,699.44 4627.43,-0.02z"/>
  <g style="clip-path:url(#id0)">
   <g id="_1029665216">
    <path id="1" class="fil6" d="M504.55 9849.26c-703.52,-7943.47 4007.62,1410.38 5475.42,-2494.97 705.63,-1877.47 2080.14,-1227.25 2649.59,-505.03 569.44,722.22 1861.11,2777.78 -55.56,3180.56 -1916.67,402.78 -8069.45,-180.56 -8069.45,-180.56z"/>
   </g>
  </g>
  <path class="fil7" d="M6239.69 8644.14c638.83,-349.67 958.29,-807.97 958.38,-1266.28l0 -0.36c-0.09,-458.31 -319.54,-916.61 -958.37,-1266.29 -1277.81,-699.44 -3349.59,-699.44 -4627.43,0.02 -638.92,349.73 -958.37,808.1 -958.37,1266.47 -0,458.37 319.45,916.74 958.36,1266.46 1277.83,699.44 3349.6,699.44 4627.43,-0.02z"/>
  <path class="fil8" d="M6118.5 8004.78l721.25 -415.67c33.76,-19.49 33.76,-51.1 0,-70.58l-1602.32 -926.2c-33.76,-19.48 -88.5,-19.48 -122.26,0l-721.24 415.67c-33.76,19.48 -33.76,51.09 0,70.58l1602.31 926.19c33.76,19.49 88.49,19.49 122.26,0z"/>
  <path class="fil8" d="M6184.24 7918.2l-76.74 44.31c-9.97,5.76 -26.13,5.76 -36.09,0l-1430.76 -826.04c-9.97,-5.76 -9.97,-15.08 0,-20.83l76.75 -44.32c9.96,-5.75 26.11,-5.75 36.08,0l1430.76 826.06c9.97,5.75 9.97,15.08 0,20.83z"/>
  <path class="fil9" d="M3348.39 7791.35l4.28 64.22c0.57,8.33 -4.61,18.86 -11.56,23.52l-558.03 374.23c-6.94,4.65 -13.02,1.65 -13.58,-6.68l-4.27 -64.22c-0.55,-8.34 4.63,-18.87 11.57,-23.52l558.02 -374.22c6.94,-4.66 13.03,-1.67 13.58,6.68z"/>
  <path class="fil9" d="M2101.5 7281.28l-76.76 44.32c-9.96,5.75 -26.11,5.75 -36.07,0l-801.51 -462.09c-9.97,-5.75 -9.97,-15.07 0,-20.82l76.75 -44.32c9.96,-5.75 26.11,-5.75 36.08,0l801.52 462.08c9.96,5.75 9.96,15.09 0,20.83z"/>
  <path class="fil10" d="M5057.59 3362.55l1407.88 812.99c45.7,26.39 73.11,72.72 75.85,125.85l-0.1 3273.28c0,51.57 -31.83,111.76 -71.11,134.46 -39.27,22.68 -107.31,20.17 -151.97,-5.63l-1402.81 -809.9c-44.47,-25.68 -80.86,-88.7 -80.86,-140.06l0.02 -3262.2c0,-51.57 43,-86.78 82.28,-109.46 39.28,-22.68 96.15,-45.13 140.82,-19.33z"/>
  <polygon class="fil11" points="6541.27,6300.95 6541.32,4301.38 6541.32,4301.38 6541.26,6300.94 "/>
  <path class="fil11" d="M6541.32 4301.38c-0.25,-11.33 -1.89,-23.39 -6.12,-36.81 3.39,11.76 5.46,24.1 6.12,36.81z"/>
  <path class="fil12" d="M6403.05 7724.6c25.05,0 49.08,-5.09 67.07,-15.48 15.65,-9.04 30.11,-24.03 41.86,-42.07 2.48,-3.81 4.84,-7.75 7.06,-11.81 7.19,-13.11 12.96,-27.37 16.81,-41.82 3.46,-12.98 5.37,-26.12 5.37,-38.76l0.01 -388.54 0 -44.2 0 -47.72 0 -246.08 0.02 -547.18 0.06 -1999.56 0 0c-0.66,-12.71 -2.73,-25.04 -6.12,-36.81 -3.16,-10 -7.76,-20.74 -14.3,-32.5l0 0 -130.5 74.03c0,0.02 0.02,0.03 0.02,0.03 22.39,26.85 37.67,62.99 37.67,94.24l0 3240c0,46.06 -21.66,74.1 -53.78,77.7 -2.36,0.26 -4.78,0.4 -7.24,0.4 -9.19,0 -19.09,-1.87 -29.5,-5.74 1.07,0.42 2.14,0.82 3.22,1.22 19.5,7.07 41.23,10.65 62.25,10.65z"/>
  <path class="fil13" d="M6486.68 4190.24c-4.43,-3.7 -9.17,-7.26 -14.24,-10.68l-6.56 -3.79c7.43,4.32 14.37,9.17 20.8,14.47zm-46.76 -29.46l-1382.32 -798.29c-14.18,-8.18 -29.59,-11.5 -45.26,-11.5 -33.75,0 -68.75,15.4 -95.53,30.86 -36.22,20.92 -76.41,50.53 -81.58,97.36 0.71,-5.67 1.94,-10.85 3.63,-15.53 11.87,-36.85 46.13,-63.44 77.93,-81.8 26.81,-15.49 61.82,-30.85 95.54,-30.85 15.68,0 31.1,3.32 45.28,11.51l1382.32 798.24z"/>
  <path class="fil14" d="M6390.41 4306.1l0 0 130.5 -74.03c-8.09,-15.3 -19.36,-29.36 -34.23,-41.83 -6.43,-5.3 -13.37,-10.15 -20.8,-14.47l-25.96 -14.99 -1382.32 -798.24c-14.18,-8.19 -29.6,-11.51 -45.28,-11.51 -33.72,0 -68.74,15.36 -95.54,30.85 -31.8,18.36 -66.06,44.96 -77.93,81.8 6.93,-19.29 21.67,-29.98 40.54,-29.98 7.53,0 15.71,1.69 24.32,5.22 3.79,1.56 7.67,3.46 11.61,5.74l1441.42 832.18c1.31,0.74 3.22,1.93 5.54,3.52 5.37,3.57 10.58,7.75 15.56,12.4 4.3,3.94 8.66,8.44 12.57,13.35z"/>
  <path class="fil10" d="M4915.31 3444.67l1441.39 832.22c39.3,22.64 71.39,78.2 71.39,123.47l0 3240c0,69.58 -49.44,98.06 -109.72,63.2l-1403.06 -810c-44.44,-25.7 -80.83,-88.61 -80.83,-140l0 -3262.22c0,-51.39 36.39,-72.36 80.83,-46.67z"/>
  <path class="fil15" d="M6367.13 7718.45c2.45,0 4.85,-0.12 7.19,-0.39 32.12,-3.6 53.78,-31.64 53.78,-77.7l0 -3240c0,-45.28 -32.08,-100.83 -71.39,-123.47l-1441.39 -832.22c-12.89,-7.46 -25.1,-10.97 -35.93,-10.97 -26.56,0 -44.91,21.15 -44.91,57.64l0 437.82 72.92 41.81 0 -262.74c0,-43.87 22.06,-69.28 54,-69.28 13.03,0 27.72,4.24 43.22,13.18l7.64 4.43 260 149.04c22.92,13.2 37.08,46.25 37.08,70.56l0 123.75c0,35.97 26.94,80.69 60.14,99.86l543.48 316.8 0 0c8.95,5.17 17.45,7.94 25.08,8.56 1.07,0.08 2.12,0.13 3.15,0.13 18.98,0 31.91,-14.19 31.91,-39.1l0 -109.72c0,-23.99 14.96,-35.81 33.98,-35.81 9.07,0 19.06,2.7 28.79,8.03l42.22 23.6 17.22 9.58 14.31 8.21 174.02 100.54c5.28,3.07 10.56,6.67 15.56,10.69 2.51,2.08 4.87,4.32 7.35,6.54 31.26,29.3 53.9,76.11 53.9,115.83l0 2961.65c0,34.76 -17.31,54.86 -42.48,54.86 -10.33,0 -22,-3.39 -34.33,-10.54l-124.1 -71.67 0 153.9 158.82 91.7c17.48,10.11 34.05,14.89 48.76,14.89z"/>
  <path class="fil12" d="M4907.4 3708.23l0 2938.07c0,48.89 34.58,108.75 76.81,133.06l1299.44 750.28c42.36,24.58 76.81,4.72 76.81,-44.32l0 -2961.65c0,-39.72 -22.64,-86.53 -53.9,-115.83 -2.49,-2.22 -4.85,-4.46 -7.35,-6.54 -5,-4.03 -10.27,-7.63 -15.56,-10.69l-174.02 -100.54 -14.31 -8.21 -17.22 -9.58 -42.22 -23.6c-30.14,-16.54 -62.78,-7.64 -62.78,27.78l0 109.72c0,35.96 -26.95,49.57 -60.14,30.42l-543.48 -316.8c-33.19,-19.17 -60.14,-63.89 -60.14,-99.86l0 -123.75c0,-24.3 -14.17,-57.36 -37.08,-70.56l-260 -149.04 -7.64 -4.43c-53.47,-30.85 -97.22,-5.71 -97.22,56.1z"/>
  <path class="fil16" d="M5012.26 6574.21l0 -2917.65 260 149.04c22.92,13.2 37.08,46.25 37.08,70.56l0 123.75c0,35.97 26.94,80.69 60.14,99.86l543.48 316.8c18.18,10.49 34.48,11.15 45.5,3.71 9.11,-6.15 94.82,-64.61 105.85,-72.68 8.61,-6.29 13.79,-17.78 13.79,-33.53l0 -41.82 17.22 9.58 14.31 8.21 174.02 100.54c5.28,3.07 10.56,6.67 15.56,10.69 2.51,2.08 4.87,4.32 7.35,6.54 31.26,29.3 53.9,76.11 53.9,115.83l0 2917.63 -1271.39 -734.01c-42.22,-24.31 -76.8,-84.17 -76.8,-133.06z"/>
  <path class="fil17" d="M5744.2 4221.39l-195.26 -112.74c-11.65,-6.72 -21.1,-1.94 -21.1,10.68 0,12.61 9.44,28.29 21.1,35.02l195.26 112.74c11.64,6.72 21.08,1.94 21.08,-10.67 0,-12.62 -9.44,-28.3 -21.08,-35.03z"/>
  <path class="fil17" d="M5448.76 4050.51c-10.93,-6.32 -19.79,-1.2 -19.79,11.41 0,12.63 8.86,27.96 19.78,34.28 10.93,6.31 19.79,1.18 19.79,-11.43 0,-12.61 -8.86,-27.96 -19.78,-34.26z"/>
  <path class="fil17" d="M5369.55 4004.83c-10.93,-6.29 -19.79,-1.2 -19.79,11.43 0,12.63 8.86,27.96 19.79,34.28 10.93,6.3 19.78,1.19 19.78,-11.43 0.01,-12.63 -8.85,-27.96 -19.78,-34.28z"/>
  <path class="fil17" d="M5923.59 4324.76c-10.93,-6.31 -19.79,-1.19 -19.79,11.42 0,12.63 8.86,27.97 19.79,34.28 10.92,6.31 19.78,1.2 19.78,-11.43 0,-12.61 -8.86,-27.96 -19.78,-34.26z"/>
  <path class="fil17" d="M5844.39 4279.09c-10.93,-6.31 -19.79,-1.2 -19.79,11.42 0,12.62 8.86,27.97 19.79,34.28 10.93,6.31 19.79,1.19 19.79,-11.43 0,-12.61 -8.86,-27.96 -19.79,-34.26z"/>
  <path class="fil18" d="M4735.01 3904.88c17.6,-10.24 41.91,-8.86 68.67,6.61l267.68 153.47c22.9,13.18 37.17,46.15 37.17,70.56 0,24.39 0,114.15 0,123.65 0,35.97 26.94,80.69 60.14,99.86l513.36 299.32c0,-21.79 0,-48.7 0,-70.56 0,-15.49 6.25,-25.91 15.82,-31.33 12.31,-6.99 80.54,-46.56 90.03,-52 12.31,-7.08 30.13,-5.85 47.16,3.5l59.38 33.22 14.3 8.2 174.04 100.56c5.28,3.06 10.55,6.67 15.56,10.69 2.5,2.08 4.85,4.31 7.35,6.53 31.25,29.31 53.89,76.11 53.89,115.83l0 2961.67c0,24.36 -8.5,41.53 -22.27,49.61 -13.93,8.18 -76.51,44.2 -90.41,52.22 -13.91,8.03 -33.11,6.85 -54.29,-5.44l-1299.48 -750.25c-42.22,-24.31 -76.81,-84.17 -76.81,-133.06l0 -2938.07c0,-30.93 10.98,-52.67 28.67,-62.78 16.11,-9.22 73.97,-42.67 90.06,-52.01z"/>
  <path class="fil5" d="M5700.3 4555.12c12.21,-5.56 28.74,-3.75 44.57,4.86l59.32 33.33 14.3 8.18 174.04 100.57c5.28,3.04 10.55,6.67 15.55,10.69 2.5,2.08 4.86,4.31 7.37,6.53 10.55,9.86 20.14,21.81 28.19,34.72l90.14 -52.09c-8.06,-12.91 -17.5,-24.86 -28.05,-34.72 -2.51,-2.22 -4.87,-4.44 -7.37,-6.53 -5,-4.03 -10.28,-7.65 -15.55,-10.7l-174.04 -100.57 -14.3 -8.18 -59.44 -33.21c-16.94,-9.43 -34.85,-10.69 -47.07,-3.6 -9.04,5.28 -70.56,40.83 -87.64,50.7z"/>
  <path class="fil5" d="M4644.87 3956.92c17.52,-10.28 41.82,-8.89 68.61,6.67l267.64 153.47c11.12,6.25 20.14,17.36 26.53,29.86l90.15 -52.08c-6.4,-12.5 -15.28,-23.47 -26.4,-29.86l-267.76 -153.47c-26.67,-15.43 -50.97,-16.81 -68.61,-6.67 -16.13,9.44 -73.9,42.78 -90.15,52.08z"/>
  <path class="fil19" d="M5138.05 4332.3l0.15 -0.1c-13.91,-17.08 -24.35,-37.79 -28.15,-57.5 3.74,19.75 14.06,40.6 28,57.6z"/>
  <path class="fil20" d="M5047.93 4384.28l90.13 -51.98c-13.94,-17 -24.26,-37.85 -28,-57.6 -1.02,-5.29 -1.56,-10.5 -1.56,-15.56l0 -123.61c0,-12.64 -3.75,-27.5 -10.7,-40.7l-90.07 52.03c6.83,13.26 10.63,28.14 10.63,40.72 0,24.4 0,114.17 0,123.67 0,13.21 3.64,27.58 9.87,41.44 5.03,11.17 11.78,21.97 19.69,31.58z"/>
  <path class="fil10" d="M4713.51 3963.57l267.7 153.46c22.89,13.19 37.15,46.15 37.15,70.56 0,24.4 0,114.17 0,123.67 0,35.97 26.94,80.69 60.15,99.86l543.38 316.82c33.19,19.17 60.14,5.56 60.14,-30.42 0,-6.51 0,-67.6 0,-109.72 0,-35.41 32.69,-44.31 62.85,-27.75l59.37 33.22 14.3 8.19 174.03 100.54c5.28,3.06 10.56,6.67 15.56,10.7 2.5,2.09 4.86,4.3 7.37,6.52 31.25,29.31 53.89,76.11 53.89,115.83l0 2961.68c0,49.02 -34.44,68.89 -76.81,44.31l-1299.48 -750.25c-42.22,-24.31 -76.81,-84.17 -76.81,-133.06l0 -2938.07c0,-61.76 43.75,-87.02 97.22,-56.1z"/>
  <path class="fil21" d="M6069.38 7796.74l0 -2961.68c0,-39.72 -22.63,-86.53 -53.89,-115.83 -2.51,-2.22 -4.87,-4.43 -7.37,-6.52 -5,-4.04 -10.28,-7.65 -15.56,-10.7l-174.03 -100.54 -14.3 -8.19 -59.37 -33.22c-9.74,-5.35 -19.75,-8.04 -28.82,-8.04 -19.04,0 -34.03,11.82 -34.03,35.79 0,42.12 0,103.21 0,109.72l0 0c0,24.92 -12.92,39.1 -31.9,39.1 -8.42,0 -18.03,-2.79 -28.24,-8.68l-543.38 -316.82c-33.21,-19.17 -60.15,-63.89 -60.15,-99.86 0,-9.5 0,-99.26 0,-123.67 0,-24.41 -14.26,-57.36 -37.15,-70.56l-267.7 -153.46c-15.5,-8.96 -30.19,-13.21 -43.24,-13.21 -31.93,0 -53.98,25.44 -53.98,69.31l0 1580.6 322.33 -216.35 193.44 293.15 -133.44 142.2 574.47 -370.2 496.29 651.44 0 1696.22z"/>
  <polygon class="fil22" points="6069.38,6100.52 5573.09,5449.07 4998.62,5819.27 5132.06,5677.07 4938.62,5383.92 4614.01,5601.8 4614.01,6263.38 6069.38,7103.66 "/>
  <path class="fil23" d="M5121.76 5123.35c-46.72,-26.99 -84.61,-5.11 -84.61,48.86 0,53.97 37.87,119.59 84.61,146.59 46.75,26.97 84.64,5.09 84.64,-48.88 0,-53.97 -37.89,-119.58 -84.64,-146.57z"/>
  <path class="fil24" d="M4616.29 6957.74l0 -849.14c189.04,-102.72 446.87,-84.36 731.14,79.75 279.78,161.53 533.78,434.79 721.96,749.43l0 858.96c0,49.02 -34.44,68.89 -76.81,44.31l-1299.48 -750.25c-42.22,-24.31 -76.81,-84.17 -76.81,-133.06z"/>
  <path class="fil18" d="M4644.06 6094.57l0 863.17c0,38.78 29.39,89.7 62.92,109l1299.53 750.28c7.56,4.37 14.8,6.78 20.39,6.78 12.79,0 14.7,-16.95 14.7,-27.07l0 -904.4c9.25,14.83 18.52,29.99 27.78,45.44l0 858.96c0,34.75 -17.31,54.85 -42.48,54.85 -10.34,0 -22,-3.39 -34.33,-10.54l-1299.48 -750.25c-42.22,-24.31 -76.81,-84.17 -76.81,-133.06l0 -849.14c8.28,-4.51 17.67,-9.22 27.78,-14.03z"/>
  <path class="fil17" d="M5599.45 6767.19l-616.89 -356.14c-16.59,-9.6 -30.06,-2.79 -30.06,15.21 0,17.98 13.46,40.35 30.07,49.93l616.85 356.15c16.61,9.6 30.08,2.78 30.08,-15.22 0,-17.99 -13.44,-40.33 -30.06,-49.93z"/>
  <path class="fil17" d="M5543.02 6897.48l-504.03 -291c-16.61,-9.59 -30.07,-2.78 -30.07,15.21 0,17.99 13.47,40.35 30.08,49.93l504 291.01c16.61,9.58 30.07,2.78 30.07,-15.22 0.02,-17.99 -13.44,-40.35 -30.06,-49.93z"/>
  <path class="fil17" d="M5543.02 6571.74l-504.03 -291c-16.61,-9.58 -30.07,-2.78 -30.07,15.21 0,18 13.47,40.35 30.08,49.94l504 291c16.61,9.6 30.07,2.79 30.07,-15.21 0.02,-17.98 -13.44,-40.35 -30.06,-49.94z"/>
  <path class="fil12" d="M5705.84 5007.17l-726 -419.14c-33.22,-19.18 -60.15,-5.54 -60.14,30.46 0,35.98 26.93,80.72 60.15,99.9l725.98 419.13c33.21,19.18 60.14,5.56 60.14,-30.44 0,-36 -26.93,-80.72 -60.14,-99.9z"/>
  <path class="fil17" d="M2827.91 4566.2c2.59,0 5.64,0.93 8.83,2.79 12.47,7.19 23,25.43 22.99,39.82 -0.02,5.86 -1.81,10.28 -4.93,12.07 -3.09,1.78 -7.79,1.14 -12.87,-1.79 -12.44,-7.18 -22.97,-25.42 -22.97,-39.83 0,-5.86 1.79,-10.26 4.91,-12.07 1.15,-0.67 2.51,-0.98 4.06,-0.98zm22.83 66.13c3.33,0 6.46,-0.81 9.26,-2.42 6.52,-3.76 10.13,-11.25 10.14,-21.08 0.01,-18.26 -12.38,-39.72 -28.2,-48.86 -8.51,-4.92 -16.82,-5.56 -23.3,-1.79 -6.52,3.76 -10.11,11.25 -10.11,21.08 0,18.28 12.39,39.75 28.18,48.86 4.85,2.79 9.63,4.21 14.03,4.21z"/>
  <path class="fil17" d="M2469.63 4359.35c2.58,0 5.63,0.93 8.82,2.79 12.47,7.18 23,25.43 22.99,39.82 0,5.86 -1.79,10.25 -4.92,12.06 -3.1,1.79 -7.81,1.15 -12.89,-1.79 -12.44,-7.19 -22.97,-25.43 -22.97,-39.82 0,-5.87 1.79,-10.26 4.9,-12.07 1.15,-0.67 2.53,-0.98 4.07,-0.98zm22.83 66.11c3.32,0 6.46,-0.81 9.26,-2.43 6.51,-3.75 10.11,-11.24 10.13,-21.07 0.01,-18.25 -12.38,-39.72 -28.2,-48.85l0 -0.02c-8.5,-4.89 -16.76,-5.56 -23.3,-1.79 -6.52,3.78 -10.11,11.26 -10.11,21.1 0,18.25 12.39,39.72 28.18,48.83 4.85,2.82 9.63,4.22 14.04,4.22z"/>
  <path class="fil17" d="M2813.74 4584.46c1.79,0 3.54,-0.92 4.52,-2.6 1.44,-2.5 0.58,-5.68 -1.9,-7.13l-307.11 -177.29c-2.47,-1.4 -5.67,-0.57 -7.11,1.91 -1.44,2.5 -0.58,5.68 1.9,7.12l307.11 177.31 2.59 0.68z"/>
  <path class="fil17" d="M3270.54 5649.26c2.59,0 5.63,0.94 8.82,2.81 12.47,7.18 23,25.43 22.98,39.82 0,5.86 -1.79,10.25 -4.92,12.06 -3.08,1.79 -7.8,1.15 -12.87,-1.79 -12.46,-7.2 -22.99,-25.43 -22.99,-39.82 0,-5.86 1.8,-10.26 4.91,-12.07 1.15,-0.67 2.53,-1 4.07,-1zm22.83 66.13c3.33,0 6.46,-0.81 9.26,-2.43 6.52,-3.75 10.11,-11.24 10.13,-21.07 0.01,-18.26 -12.37,-39.72 -28.2,-48.85l0 0c-8.48,-4.91 -16.76,-5.57 -23.3,-1.81 -6.52,3.78 -10.11,11.26 -10.11,21.1 0,18.26 12.39,39.71 28.19,48.85 4.83,2.8 9.61,4.21 14.03,4.21z"/>
  <path class="fil17" d="M2835.61 6610.12c2.6,0 5.64,0.93 8.83,2.79 12.46,7.19 22.98,25.43 22.97,39.82 0,5.86 -1.79,10.26 -4.91,12.07 -3.11,1.78 -7.82,1.15 -12.89,-1.79 -12.44,-7.18 -22.97,-25.42 -22.97,-39.82 0,-5.87 1.79,-10.28 4.89,-12.08 1.15,-0.65 2.54,-0.98 4.07,-0.98zm22.85 66.11c3.32,0 6.46,-0.81 9.25,-2.4 6.53,-3.76 10.11,-11.26 10.13,-21.1 0.01,-18.25 -12.36,-39.71 -28.18,-48.83l0 -0.01c-8.5,-4.89 -16.76,-5.56 -23.32,-1.79 -6.5,3.76 -10.1,11.26 -10.1,21.09 0,18.26 12.37,39.72 28.18,48.83 4.85,2.79 9.61,4.21 14.04,4.21z"/>
  <path class="fil17" d="M2179.06 6228.85c12.46,7.19 22.99,25.43 22.96,39.79 0,5.87 -1.79,10.28 -4.9,12.07 -3.11,1.8 -7.83,1.15 -12.89,-1.79 -12.46,-7.17 -22.96,-25.41 -22.96,-39.82 0,-5.87 1.76,-10.26 4.88,-12.06 3.14,-1.78 7.82,-1.14 12.91,1.79l0 0.02zm14 63.32c3.33,0 6.44,-0.82 9.27,-2.43 6.51,-3.76 10.09,-11.25 10.11,-21.07 0.03,-18.25 -12.35,-39.7 -28.17,-48.85 -8.51,-4.91 -16.78,-5.57 -23.33,-1.79 -6.52,3.76 -10.08,11.24 -10.08,21.07 0,18.28 12.36,39.74 28.17,48.86 4.85,2.79 9.63,4.21 14.04,4.21z"/>
  <path class="fil17" d="M3281.94 5800.51l2.61 -0.7c1.61,-0.93 2.6,-2.65 2.6,-4.51l0 -88.64c0,-2.86 -2.33,-5.21 -5.21,-5.21 -2.88,0 -5.21,2.35 -5.21,5.21l0 79.63 -759.78 -438.76c-1.59,-0.93 -3.61,-0.93 -5.21,0 -1.61,0.93 -2.61,2.65 -2.61,4.52l0 384.61c0,2.87 2.33,5.21 5.21,5.21 2.87,0 5.21,-2.33 5.21,-5.21l0 -375.6 759.79 438.76 2.6 0.7z"/>
  <path class="fil17" d="M2584.59 5897.55l-68.65 66.69 -71.83 -152.78 68.63 -66.04 71.86 152.13zm-70.26 80.72c1.35,0 2.65,-0.52 3.64,-1.47l76.56 -74.39c1.58,-1.54 2.01,-3.94 1.07,-5.96l-76.54 -162.03c-0.71,-1.51 -2.11,-2.58 -3.76,-2.9 -1.65,-0.26 -3.35,0.22 -4.54,1.37l-76.56 73.65c-1.61,1.54 -2.07,3.94 -1.09,5.96l76.54 162.76c0.7,1.53 2.11,2.62 3.76,2.91l0.93 0.09z"/>
  <path class="fil17" d="M2770.26 6185.13c2.87,0 5.21,-2.33 5.21,-5.21l0 -177.32c0,-1.86 -0.99,-3.58 -2.58,-4.5l-179.39 -103.93c-2.43,-1.43 -5.67,-0.61 -7.11,1.9 -1.46,2.49 -0.6,5.67 1.89,7.11l176.78 102.42 0 174.32c0,2.88 2.33,5.21 5.21,5.21z"/>
  <path class="fil14" d="M2307.91 5943.42l-99 -57.15c-15.07,-8.7 -27.28,-1.64 -27.28,15.75l0 25.85c0,17.39 12.21,38.56 27.28,47.25l99 57.15c15.07,8.69 27.28,1.64 27.28,-15.75l0 -25.85c0,-17.39 -12.21,-38.54 -27.28,-47.25z"/>
  <path class="fil17" d="M2821.44 6628.39c1.79,0 3.54,-0.94 4.51,-2.61 1.43,-2.48 0.58,-5.67 -1.92,-7.13l-48.57 -28.04 0 -260.02c0,-2.87 -2.33,-5.21 -5.21,-5.21 -2.87,0 -5.21,2.33 -5.21,5.21l0 263.03c0,1.85 0.98,3.57 2.61,4.52l51.17 29.56 2.61 0.69z"/>
  <path class="fil17" d="M2258.43 5889.62c2.87,0 5.21,-2.33 5.21,-5.21l0 -168.31 171.57 98.71c2.48,1.46 5.68,0.58 7.11,-1.92 1.43,-2.48 0.57,-5.67 -1.93,-7.11l-179.38 -103.21c-1.59,-0.92 -3.59,-0.93 -5.19,0.02 -1.61,0.93 -2.6,2.65 -2.6,4.51l0 177.31c0,2.87 2.33,5.21 5.21,5.21z"/>
  <path class="fil17" d="M2258.43 6303.33l2.6 -0.7c1.61,-0.93 2.61,-2.65 2.61,-4.51l0 -265.96c0,-2.87 -2.33,-5.21 -5.21,-5.21 -2.87,0 -5.21,2.33 -5.21,5.21l0 256.94 -43.37 -25.06c-2.48,-1.37 -5.68,-0.57 -7.13,1.92 -1.44,2.5 -0.58,5.68 1.92,7.13l51.18 29.54 2.61 0.7z"/>
  <path class="fil17" d="M1513.69 4396.15c12.46,7.19 22.99,25.43 22.96,39.79 0,5.89 -1.79,10.28 -4.92,12.08 -3.1,1.79 -7.78,1.15 -12.87,-1.81 -12.46,-7.17 -22.97,-25.4 -22.97,-39.8 0,-5.87 1.79,-10.26 4.9,-12.07 3.11,-1.8 7.81,-1.14 12.9,1.79l0 0.02zm13.99 63.3c3.35,0 6.46,-0.79 9.26,-2.4 6.51,-3.76 10.11,-11.25 10.12,-21.1 0.03,-18.24 -12.35,-39.68 -28.17,-48.85 -8.53,-4.9 -16.82,-5.54 -23.32,-1.78 -6.52,3.78 -10.11,11.25 -10.11,21.08 0,18.28 12.37,39.71 28.18,48.85 4.85,2.79 9.62,4.19 14.03,4.19z"/>
  <path class="fil17" d="M1197.74 3093.12c2.6,0 5.64,0.93 8.83,2.79 12.47,7.19 22.98,25.42 22.98,39.8 -0.01,5.86 -1.8,10.26 -4.93,12.07 -3.1,1.78 -7.79,1.13 -12.87,-1.81 -12.44,-7.17 -22.97,-25.4 -22.97,-39.8 0,-5.87 1.79,-10.26 4.9,-12.07 1.15,-0.67 2.52,-0.98 4.06,-0.98zm22.83 66.09c3.33,0 6.46,-0.79 9.26,-2.41 6.52,-3.75 10.13,-11.24 10.14,-21.07 0,-18.28 -12.37,-39.71 -28.19,-48.86 -8.52,-4.9 -16.83,-5.54 -23.31,-1.78 -6.51,3.76 -10.11,11.25 -10.11,21.08 0,18.28 12.39,39.72 28.18,48.83 4.85,2.8 9.63,4.2 14.03,4.2z"/>
  <path class="fil17" d="M1197.74 3389.48c2.6,0 5.64,0.93 8.83,2.8 12.47,7.18 22.98,25.43 22.98,39.82 -0.01,5.85 -1.8,10.26 -4.93,12.06 -3.1,1.78 -7.79,1.14 -12.87,-1.79 -12.44,-7.17 -22.97,-25.42 -22.97,-39.82 0,-5.88 1.79,-10.26 4.9,-12.07 1.15,-0.67 2.52,-0.99 4.06,-0.99zm22.83 66.11c3.33,0 6.46,-0.79 9.26,-2.42 6.52,-3.75 10.13,-11.24 10.14,-21.07 0,-18.28 -12.37,-39.72 -28.19,-48.87 -8.52,-4.9 -16.83,-5.54 -23.31,-1.79 -6.51,3.78 -10.11,11.26 -10.11,21.1 0,18.28 12.39,39.75 28.18,48.85 4.85,2.8 9.63,4.21 14.03,4.21z"/>
  <path class="fil17" d="M1197.74 3685.84c2.6,0 5.64,0.93 8.83,2.79 12.47,7.2 22.98,25.44 22.98,39.83 -0.01,5.85 -1.8,10.26 -4.93,12.06 -3.1,1.79 -7.79,1.14 -12.87,-1.79 -12.44,-7.19 -22.97,-25.43 -22.97,-39.82 0,-5.87 1.79,-10.28 4.9,-12.07 1.15,-0.67 2.52,-1 4.06,-1zm22.83 66.13c3.33,0 6.46,-0.81 9.26,-2.42 6.52,-3.75 10.13,-11.24 10.14,-21.07 0,-18.28 -12.37,-39.74 -28.19,-48.87 -8.52,-4.89 -16.83,-5.56 -23.31,-1.79 -6.51,3.78 -10.11,11.26 -10.11,21.1 0,18.25 12.39,39.71 28.18,48.83 4.85,2.81 9.63,4.22 14.03,4.22z"/>
  <path class="fil17" d="M1197.74 3982.21c2.6,0 5.64,0.93 8.83,2.8 12.47,7.19 22.98,25.44 22.98,39.83 -0.01,5.86 -1.8,10.26 -4.93,12.06 -3.1,1.78 -7.79,1.15 -12.87,-1.79 -12.44,-7.19 -22.97,-25.43 -22.97,-39.82 0,-5.87 1.79,-10.28 4.9,-12.08 1.15,-0.65 2.52,-0.99 4.06,-0.99zm22.83 66.13c3.33,0 6.46,-0.79 9.26,-2.42 6.52,-3.76 10.13,-11.24 10.14,-21.08 0,-18.26 -12.37,-39.72 -28.19,-48.86 -8.52,-4.9 -16.83,-5.53 -23.31,-1.79 -6.51,3.78 -10.11,11.26 -10.11,21.1 0,18.25 12.39,39.71 28.18,48.83 4.85,2.8 9.63,4.22 14.03,4.22z"/>
  <path class="fil17" d="M1490.68 4411.62c1.79,0 3.54,-0.93 4.51,-2.6 1.44,-2.5 0.58,-5.69 -1.9,-7.13l-99.78 -57.61 0.02 -1119.92c0,-1.86 -0.99,-3.58 -2.6,-4.51l-153.56 -88.65c-2.48,-1.4 -5.67,-0.57 -7.13,1.9 -1.43,2.5 -0.58,5.7 1.92,7.13l150.94 87.14 -0.01 1119.93c0,1.87 0.98,3.58 2.61,4.51l102.37 59.11 2.6 0.7z"/>
  <path class="fil17" d="M1388.3 3525.09c1.8,0 3.54,-0.93 4.52,-2.6 1.44,-2.5 0.58,-5.68 -1.9,-7.13l-153.54 -88.65c-2.48,-1.39 -5.67,-0.57 -7.13,1.92 -1.43,2.49 -0.58,5.68 1.92,7.11l153.54 88.65 2.59 0.7z"/>
  <path class="fil17" d="M1388.3 3820.92c1.8,0 3.54,-0.94 4.52,-2.61 1.44,-2.48 0.58,-5.68 -1.9,-7.11l-153.54 -88.65c-2.48,-1.39 -5.67,-0.57 -7.13,1.9 -1.43,2.5 -0.58,5.7 1.92,7.13l153.54 88.65 2.59 0.69z"/>
  <path class="fil17" d="M1388.3 4116.76c1.8,0 3.54,-0.94 4.52,-2.6 1.44,-2.51 0.58,-5.69 -1.9,-7.12l-153.54 -88.67c-2.48,-1.39 -5.67,-0.57 -7.13,1.92 -1.43,2.5 -0.58,5.69 1.92,7.13l153.54 88.65 2.59 0.69z"/>
  <path class="fil17" d="M4419.12 6727.57c1.78,0 3.53,-0.93 4.51,-2.6 1.43,-2.5 0.58,-5.68 -1.92,-7.12l-335.9 -193.93 0 -1690.75c0,-1.86 -0.98,-3.58 -2.6,-4.53l-225.67 -130.28c-2.43,-1.39 -5.64,-0.59 -7.11,1.91 -1.44,2.5 -0.58,5.68 1.9,7.12l223.06 128.79 0 1690.75c0,1.86 1,3.58 2.61,4.53l338.5 195.42 2.61 0.69z"/>
  <path class="fil17" d="M3826.79 4663.06c12.46,7.19 22.98,25.43 22.96,39.8 0,5.87 -1.79,10.28 -4.91,12.07 -3.11,1.79 -7.82,1.14 -12.88,-1.79 -12.46,-7.18 -22.97,-25.43 -22.97,-39.82 0,-5.88 1.79,-10.26 4.91,-12.07 3.09,-1.79 7.82,-1.14 12.9,1.79l0 0.02zm13.98 63.32c3.35,0 6.46,-0.81 9.26,-2.43 6.53,-3.75 10.11,-11.24 10.13,-21.07 0.03,-18.25 -12.35,-39.71 -28.17,-48.86 -8.54,-4.89 -16.82,-5.54 -23.32,-1.79 -6.52,3.78 -10.11,11.26 -10.11,21.1 0,18.25 12.38,39.71 28.18,48.83 4.85,2.82 9.63,4.22 14.03,4.22z"/>
  <path class="fil8" d="M2979.51 3633.57c11.97,-6.96 28.5,-6.03 46.72,4.5l130.96 75.65c15.58,8.97 25.28,31.4 25.28,48 0,16.6 0,76.92 0,83.37 0,24.47 18.33,54.91 40.92,67.94l246.93 144.56c0,-14.82 0,-33.13 0,-48 0,-10.54 4.26,-17.63 10.78,-21.32 8.36,-4.76 54.79,-31.67 61.25,-35.39 8.37,-4.82 20.52,-3.97 32.1,2.38l40.4 22.61 9.72 5.57 65.93 38.14c3.6,2.08 7.19,4.54 10.6,7.29 1.69,1.42 3.29,2.92 5,4.43 21.26,19.94 36.67,51.79 36.67,78.82l0 1640.72c0,16.58 -5.79,28.26 -15.15,33.76 -9.48,5.56 -52.06,30.07 -61.53,35.53 -9.44,5.46 -22.53,4.65 -36.93,-3.71l-678.17 -391.53c-28.72,-16.53 -52.26,-57.26 -52.26,-90.53l0 -1624.7c0,-21.04 7.47,-35.85 19.5,-42.72 10.99,-6.26 50.35,-29.03 61.29,-35.39z"/>
  <path class="fil25" d="M2918.18 3668.99c11.9,-7 28.44,-6.06 46.68,4.53l130.93 75.65c7.56,4.25 13.69,11.8 18.04,20.32l61.35 -35.44c-4.36,-8.5 -10.42,-15.97 -17.96,-20.32l-131.03 -75.65c-18.15,-10.48 -34.68,-11.43 -46.68,-4.53 -10.96,6.43 -50.28,29.11 -61.33,35.44z"/>
  <path class="fil26" d="M3202.55 3894.85l0.11 -0.07c-9.14,-11.24 -16.1,-24.76 -18.89,-37.76 2.75,13.04 9.61,26.65 18.78,37.83z"/>
  <path class="fil27" d="M3141.23 3930.23l61.32 -35.37c-9.17,-11.18 -16.03,-24.79 -18.78,-37.83 -0.86,-4.06 -1.33,-8.07 -1.33,-11.94l0 -83.33c0,-8.59 -2.56,-18.7 -7.26,-27.69l-61.28 35.42c4.64,9.01 7.22,19.14 7.22,27.69 0,16.61 0,76.92 0,83.38 0,9.61 2.83,20.15 7.64,30.19 3.3,6.89 7.56,13.53 12.47,19.5z"/>
  <path class="fil24" d="M2964.87 3673.51l130.96 75.65c15.58,8.97 25.29,31.41 25.29,48 0,16.61 0,76.92 0,83.38 0,24.47 18.32,54.9 40.91,67.94l267.36 156.47c22.58,13.04 40.92,3.79 40.92,-20.69 0,-4.43 0,-45.98 0,-74.65 0,-24.09 22.25,-30.15 42.78,-18.89l40.39 22.6 9.74 5.58 65.93 38.14c3.59,2.07 7.18,4.54 10.58,7.28 1.71,1.42 3.3,2.93 5.01,4.44 21.25,19.93 36.67,51.78 36.67,78.81l0 1640.74c0,33.36 -23.44,46.87 -52.26,30.14l-678.17 -391.53c-28.72,-16.53 -52.26,-57.26 -52.26,-90.53l0 -1624.7c0,-42.03 29.78,-59.21 66.15,-38.18z"/>
  <path class="fil8" d="M2935.45 3664.52c8.88,0 18.86,2.9 29.42,8.99l130.96 75.65c15.58,8.97 25.29,31.42 25.29,48 0,16.61 0,76.92 0,83.38 0,24.47 18.32,54.9 40.91,67.94l267.36 156.47c6.94,4.02 13.49,5.92 19.22,5.92 12.91,0 21.69,-9.67 21.69,-26.61 0,-4.43 0,-45.98 0,-74.65 0,-16.3 10.21,-24.36 23.17,-24.36 6.18,0 12.97,1.83 19.61,5.47l40.39 22.6 9.74 5.58 65.93 38.14c3.59,2.07 7.18,4.54 10.58,7.28 1.71,1.42 3.3,2.93 5,4.44 21.26,19.93 36.68,51.78 36.68,78.81l0 1640.74c0,23.64 -11.78,37.32 -28.91,37.32 -7.04,0 -14.96,-2.31 -23.36,-7.18l-678.17 -391.53c-28.72,-16.53 -52.26,-57.26 -52.26,-90.53l0 -1624.7c0,-29.85 15,-47.17 36.74,-47.17zm0 12.61c-22.4,0 -24.14,26.44 -24.14,34.56l0 1624.7c0,28.82 21.04,65.28 45.96,79.63l678.2 391.53c6.17,3.58 12.06,5.47 17.04,5.47 14.71,0 16.31,-17.28 16.31,-24.71l0 -1640.74c0,-22.94 -13.44,-51.59 -32.43,-69.39l-1.74 -1.56 -2.83 -2.5c-2.86,-2.31 -5.87,-4.39 -8.97,-6.18l-65.89 -38.11 -9.62 -5.5 -40.31 -22.57c-4.6,-2.52 -9.42,-3.9 -13.54,-3.9 -7.21,0 -10.56,3.72 -10.56,11.75l0 74.65c0,23.46 -13.79,39.21 -34.3,39.21 -8.21,0 -16.79,-2.56 -25.59,-7.64l-267.3 -156.43c-26.47,-15.28 -47.21,-49.93 -47.21,-78.86l0 -83.38c0,-12.62 -7.63,-30.54 -19,-37.09l-130.96 -75.64c-8.25,-4.76 -16.25,-7.29 -23.11,-7.29z"/>
  <polygon class="fil21" points="3589.08,4317.83 2974.98,3963.15 2974.98,4554.16 3589.08,4908.85 "/>
  <polygon class="fil22" points="3589.08,4908.85 3589.08,4672.37 3384.47,4406.41 3128.55,4554.16 3181.16,4501.39 3082.54,4353.15 2975,4443.27 2974.98,4554.16 "/>
  <path class="fil23" d="M3200.13 4337.34c16.35,0 27.58,-13.04 27.58,-35.6 0,-31.79 -22.32,-70.44 -49.85,-86.35 -8,-4.61 -15.57,-6.8 -22.26,-6.8 -16.36,0 -27.6,13.04 -27.6,35.59 0,31.79 22.32,70.44 49.86,86.33 8,4.63 15.57,6.82 22.26,6.82z"/>
  <path class="fil23" d="M3538.02 4938.33c-28.28,-16.32 -51.19,-3.1 -51.19,29.54 0,32.65 22.89,72.32 51.14,88.63 28.22,16.31 51.14,3.07 51.18,-29.56 0.03,-32.61 -22.85,-72.29 -51.13,-88.61z"/>
  <path class="fil12" d="M3419.27 4869.78l-274.87 -158.43c-9.06,-5.21 -16.28,-0.97 -16.14,9.46l0.06 5.36c0.13,10.44 7.56,23.14 16.61,28.35l274.36 158.4c9.04,5.22 16.36,1 16.36,-9.44l0 -5.36c0,-10.43 -7.33,-23.13 -16.38,-28.33z"/>
  <path class="fil16" d="M3423.63 4958.89l-420.5 -242.59c-6.63,-3.83 -11.93,-0.72 -11.83,6.93l0.06 3.93c0.09,7.65 5.56,16.96 12.17,20.78l420.13 242.6c6.64,3.82 12,0.72 12,-6.93l0 -3.93c0,-7.65 -5.38,-16.96 -12.02,-20.78z"/>
  <path class="fil10" d="M3576.31 5602.28l-1.57 0.42 -1.57 2.72 0 58.89 -70.49 -40.68 0.07 -62.48 -1.57 -2.74 -14.83 -8.56 50.5 -27.88 50.5 86.18 -9.46 -5.46 -1.58 -0.42zm0 70.64l1.58 -0.43 1.57 -2.72 0 -58.89 15.06 8.69 3.81 -0.5 0.47 -3.82 -58.07 -99.11c-0.86,-1.47 -2.74,-2.02 -4.24,-1.15l-58.07 32.04 -1.63 2.72 1.59 2.76 18.08 10.44 -0.08 62.48 1.58 2.72 76.78 44.32 1.57 0.43z"/>
  <path class="fil10" d="M3042.18 5243.04c3.12,0 6.57,1.41 10.15,4.18 13.17,10.17 22.48,34.26 20.8,53.72 -3.17,36.5 -28.47,44.22 -36.15,45.71l-9.78 1.9 -10.43 -14.6c-7.96,-11.12 -34.21,-50.56 -37.53,-90.57 -1.03,-12.5 1.78,-22.89 7.33,-27.08 2.87,-2.21 6.35,-2.57 10.28,-1.09 11.59,4.26 22.67,22.41 25.86,41.89l-0.19 1.07 0.68 1.96c0.42,1.25 1.58,2.11 2.96,2.13l0.03 0c1.56,0 2.89,-1.14 3.13,-2.67 1.22,-8.21 4.61,-14 9.28,-15.86l3.58 -0.69zm-16.35 112.15l0.59 -0.06 11.75 -2.29c8.78,-1.71 37.68,-10.46 41.22,-51.36 1.86,-21.35 -8.56,-47.93 -23.22,-59.25 -6.81,-5.24 -13.85,-6.75 -19.93,-4.35 -3.9,1.57 -7.08,4.58 -9.4,8.86 -5.14,-17.97 -16.03,-33.11 -27.81,-37.44 -5.9,-2.21 -11.69,-1.5 -16.26,1.97 -7.36,5.58 -11.03,17.78 -9.79,32.62 3.44,41.63 30.46,82.26 38.67,93.72l11.61 16.25 2.57 1.32z"/>
  <path class="fil10" d="M3282.19 5447.55l-0.08 0 0.08 0zm-10.46 -0.03c2.71,0 5.71,0.92 8.87,2.75l15.07 8.69c13.68,7.9 24.8,29.29 24.8,47.68l0 11.57 -61.51 -35.53 0 -15.19c0,-9.07 2.75,-15.85 7.54,-18.61 1.57,-0.92 3.33,-1.36 5.22,-1.36zm51.9 79.29l1.57 -0.42 1.58 -2.72 0 -17.03c0,-20.41 -12.54,-44.24 -27.96,-53.13l-15.07 -8.69c-7.36,-4.25 -14.61,-4.75 -20.4,-1.41 -6.8,3.92 -10.68,12.7 -10.68,24.07l0 17.02 1.57 2.72 67.82 39.17 1.57 0.42z"/>
  <path class="fil10" d="M3280.77 5370.04c2.68,0 5.33,1.12 7.36,2.29 11.57,6.67 20.99,24.78 20.99,40.36 0,7.57 -2.26,13.22 -6.22,15.5 -3.96,2.31 -8.51,0.61 -11.61,-1.17 -11.56,-6.67 -20.97,-24.79 -20.97,-40.37 0,-7.57 2.26,-13.22 6.22,-15.5 1.38,-0.81 2.81,-1.11 4.24,-1.11zm17.91 65.57c2.64,0 5.12,-0.65 7.37,-1.94 5.96,-3.44 9.36,-11.08 9.36,-20.97 0,-17.89 -10.6,-38.01 -24.13,-45.82 -6.44,-3.71 -12.81,-4.11 -17.89,-1.18 -5.96,3.44 -9.37,11.09 -9.37,20.96 0,17.9 10.6,38.01 24.11,45.82 3.61,2.08 7.2,3.14 10.54,3.14z"/>
  <path class="fil10" d="M3002.26 4827.89l559.54 323.18c15.06,8.7 27.28,29.86 27.28,47.25l0 55.07c0,17.41 -12.22,24.44 -27.29,15.75l-559.63 -322.97c-15.07,-8.7 -27.28,-29.85 -27.25,-47.25l0.06 -55.28c0,-17.39 12.24,-24.44 27.29,-15.75z"/>
  <path class="fil12" d="M3573.98 5272.87c8.94,0 15.1,-7.14 15.1,-19.47l0 -55.07c0,-17.39 -12.22,-38.56 -27.28,-47.25l-559.54 -323.18c-4.37,-2.53 -8.52,-3.72 -12.18,-3.72 -8.94,0 -15.11,7.14 -15.11,19.47l-0.06 55.28c-0.03,17.41 12.18,38.56 27.25,47.25l559.63 322.97c4.39,2.53 8.53,3.72 12.19,3.72z"/>
  <path class="fil10" d="M3002.26 5005.24l559.54 323.18c15.06,8.7 27.28,29.86 27.28,47.25l0 55.07c0,17.39 -12.22,24.44 -27.29,15.75l-559.63 -322.97c-15.07,-8.69 -27.28,-29.85 -27.25,-47.25l0.06 -55.28c0,-17.4 12.24,-24.44 27.29,-15.75z"/>
  <path class="fil15" d="M3573.98 5450.21c8.94,0 15.1,-7.14 15.1,-19.47l0 -55.07c0,-17.39 -12.22,-38.56 -27.28,-47.25l-559.54 -323.18c-4.37,-2.53 -8.52,-3.72 -12.18,-3.72 -8.94,0 -15.11,7.13 -15.11,19.47l-0.06 55.28c-0.03,17.4 12.18,38.56 27.25,47.25l559.63 322.97c4.39,2.53 8.53,3.72 12.19,3.72z"/>
  <path class="fil8" d="M1659.97 2871.67c4.13,-2.41 8.8,-3.87 13.89,-4.32l7.03 0c7.93,0.67 16.65,3.53 25.79,8.82l130.97 75.64c15.57,8.97 25.28,31.4 25.28,48 0,16.61 0,76.92 0,83.37 0,24.49 18.33,54.92 40.92,67.96l246.94 144.56c0,-14.83 0,-33.14 0,-48.02 0,-10.53 4.25,-17.62 10.76,-21.32 8.37,-4.75 54.79,-31.68 61.25,-35.39 8.38,-4.8 20.52,-3.97 32.1,2.39l40.4 22.61 9.72 5.57 65.93 38.14c3.6,2.09 7.2,4.54 10.6,7.28 1.69,1.42 3.29,2.93 5,4.44 21.26,19.93 36.67,51.78 36.67,78.82l0 1640.72c0,16.59 -5.79,28.26 -15.15,33.76 -9.48,5.56 -52.06,30.07 -61.53,35.53 -9.44,5.46 -22.53,4.65 -36.93,-3.7l-678.17 -391.53c-28.72,-16.54 -52.26,-57.27 -52.26,-90.54l0 -1624.69c0,-21.04 7.48,-35.83 19.5,-42.71 10.97,-6.28 50.35,-29.03 61.29,-35.39z"/>
  <path class="fil25" d="M2163.22 3225.45c8.32,-3.78 19.56,-2.56 30.33,3.31l40.35 22.68 9.74 5.58 65.93 38.14c3.6,2.07 7.18,4.53 10.59,7.26 1.71,1.42 3.3,2.93 5,4.44 7.19,6.72 13.72,14.85 19.19,23.63l61.33 -35.43c-5.47,-8.79 -11.91,-16.92 -19.1,-23.64 -1.69,-1.51 -3.29,-3.01 -5,-4.43 -3.4,-2.75 -7,-5.19 -10.58,-7.28l-65.93 -38.14 -9.73 -5.57 -40.44 -22.6c-11.53,-6.42 -23.72,-7.28 -32.04,-2.46 -6.14,3.6 -48,27.79 -59.63,34.5z"/>
  <path class="fil25" d="M1598.63 2907.07c11.9,-6.98 28.44,-6.04 46.68,4.54l130.93 75.65c7.56,4.24 13.7,11.8 18.06,20.3l61.33 -35.43c-4.36,-8.5 -10.4,-15.97 -17.96,-20.32l-131.03 -75.65c-9.24,-5.34 -18.06,-8.2 -26.07,-8.82l-6.45 0c-5.19,0.42 -9.95,1.87 -14.16,4.29 -10.96,6.42 -50.28,29.09 -61.33,35.43z"/>
  <path class="fil26" d="M1883.01 3132.94l0.11 -0.06c-9.2,-11.29 -16.17,-24.92 -18.93,-37.97 2.72,13.1 9.61,26.79 18.82,38.03z"/>
  <path class="fil27" d="M1821.69 3168.31l61.32 -35.37c-9.21,-11.24 -16.09,-24.93 -18.82,-38.03 -0.83,-4 -1.29,-7.93 -1.29,-11.74l0 -83.33c0,-8.6 -2.54,-18.72 -7.26,-27.69l-61.29 35.4c4.65,9.03 7.24,19.14 7.24,27.71 0,16.6 0,76.92 0,83.36 0,10.32 3.25,21.68 8.71,32.36 3.14,6.11 7,12 11.4,17.33z"/>
  <path class="fil24" d="M1645.33 2911.6l130.96 75.64c15.58,8.99 25.29,31.42 25.29,48.02 0,16.6 0,76.92 0,83.36 0,24.48 18.33,54.92 40.92,67.96l267.36 156.47c22.58,13.04 40.93,3.78 40.93,-20.69 0,-4.43 0,-46 0,-74.67 0,-24.08 22.24,-30.14 42.76,-18.87l40.39 22.6 9.74 5.57 65.93 38.15c3.6,2.07 7.18,4.53 10.58,7.26 1.71,1.42 3.31,2.93 5,4.44 21.28,19.94 36.68,51.79 36.68,78.82l0 1640.72c0,33.36 -23.44,46.87 -52.26,30.15l-678.17 -391.53c-28.72,-16.54 -52.26,-57.27 -52.26,-90.54l0 -1624.69c0,-42.03 29.78,-59.21 66.15,-38.17z"/>
  <path class="fil8" d="M1615.91 2902.62c8.89,0 18.86,2.89 29.42,8.98l130.96 75.64c15.58,8.99 25.29,31.42 25.29,48.02 0,16.6 0,76.92 0,83.36 0,24.48 18.33,54.92 40.92,67.96l267.36 156.47c6.94,4.02 13.48,5.9 19.22,5.9 12.92,0 21.71,-9.65 21.71,-26.59 0,-4.44 0,-46 0,-74.67 0,-16.3 10.19,-24.35 23.15,-24.35 6.17,0 12.97,1.82 19.61,5.47l40.39 22.6 9.74 5.57 65.93 38.15c3.6,2.07 7.18,4.53 10.58,7.26 1.71,1.42 3.31,2.93 5.02,4.44 21.26,19.94 36.67,51.79 36.67,78.82l0 1640.72c0,23.65 -11.79,37.32 -28.9,37.32 -7.03,0 -14.97,-2.31 -23.36,-7.17l-678.17 -391.53c-28.72,-16.54 -52.26,-57.27 -52.26,-90.54l0 -1624.69c0,-29.83 15.01,-47.15 36.74,-47.15zm0 12.59c-22.39,0 -24.13,26.46 -24.13,34.56l0 1624.69c0,28.82 21.03,65.28 45.94,79.63l678.19 391.54c6.18,3.58 12.06,5.47 17.04,5.47 14.71,0 16.3,-17.29 16.3,-24.72l0 -1640.72c0,-22.94 -13.44,-51.58 -32.43,-69.39l-1.78 -1.61 -2.78 -2.44c-2.86,-2.32 -5.89,-4.39 -8.99,-6.18l-65.89 -38.11 -9.61 -5.51 -40.32 -22.56c-4.59,-2.53 -9.4,-3.92 -13.54,-3.92 -7.21,0 -10.56,3.74 -10.56,11.75l0 74.67c0,23.44 -13.79,39.19 -34.31,39.19 -8.21,0 -16.79,-2.56 -25.58,-7.63l-267.31 -156.43c-26.47,-15.29 -47.21,-49.93 -47.21,-78.87l0 -83.36c0,-12.64 -7.62,-30.56 -18.98,-37.1l-130.97 -75.64c-8.25,-4.78 -16.24,-7.31 -23.11,-7.31z"/>
  <polygon class="fil9" points="2269.54,3555.92 1655.45,3201.24 1655.45,3911.7 2269.54,4266.38 "/>
  <polygon class="fil22" points="2269.54,4266.38 2269.54,4029.89 2058.58,3669.04 1809.01,3882.13 1860.19,3793.49 1781.63,3669.04 1655.47,3772.13 1655.45,3911.7 "/>
  <path class="fil28" d="M1880.59 3562.35c16.36,0 27.58,-13.04 27.58,-35.6 0,-31.79 -22.32,-70.44 -49.85,-86.33 -8,-4.62 -15.57,-6.82 -22.27,-6.82 -16.36,0 -27.59,13.04 -27.59,35.58 0,31.79 22.33,70.46 49.86,86.35 8,4.62 15.57,6.82 22.26,6.82z"/>
  <path class="fil12" d="M2256.77 4840.37l-1.57 0.43 -1.57 2.72 0 58.89 -70.48 -40.7 0.08 -62.48 -1.58 -2.72 -14.83 -8.56 50.5 -27.87 50.5 86.18 -9.46 -5.46 -1.59 -0.43zm0 70.64l1.59 -0.42 1.57 -2.72 0 -58.9 15.06 8.71 3.81 -0.52 0.48 -3.8 -58.08 -99.11c-0.86,-1.48 -2.75,-2.01 -4.24,-1.17l-58.06 32.06 -1.64 2.72 1.58 2.75 18.08 10.44 -0.07 62.49 1.57 2.72 76.78 44.33 1.57 0.42z"/>
  <path class="fil12" d="M1986.51 4633.26c3.14,0 6.59,1.42 10.17,4.18 13.15,10.17 22.48,34.28 20.8,53.72 -3.18,36.44 -28.48,44.21 -36.17,45.71l-9.78 1.91 -10.41 -14.6c-7.97,-11.13 -34.21,-50.5 -37.53,-90.58 -1.03,-12.49 1.78,-22.88 7.33,-27.08 2.89,-2.2 6.33,-2.57 10.28,-1.09 11.59,4.28 22.68,22.42 25.85,41.93l-0.18 1.04 0.65 1.93c0.43,1.25 1.61,2.14 2.96,2.15l0.04 0c1.56,0 2.87,-1.14 3.13,-2.67 1.24,-8.22 4.62,-14 9.29,-15.87l3.57 -0.68zm-16.35 112.14l0.6 -0.06 11.76 -2.29c8.78,-1.72 37.68,-10.5 41.22,-51.35 1.86,-21.33 -8.56,-47.92 -23.22,-59.25 -6.78,-5.25 -13.89,-6.82 -19.93,-4.36 -3.91,1.56 -7.1,4.59 -9.42,8.87 -5.14,-17.97 -16.02,-33.11 -27.79,-37.46 -5.88,-2.18 -11.68,-1.49 -16.28,1.98 -7.35,5.57 -11.01,17.76 -9.78,32.61 3.43,41.71 30.46,82.28 38.67,93.74l11.6 16.25 2.57 1.3z"/>
  <path class="fil12" d="M1703.69 4539.87l15.07 8.7c13.68,7.9 24.8,29.29 24.8,47.67l0 11.57 -61.53 -35.52 0 -15.21c0,-9.06 2.75,-15.83 7.54,-18.6 3.85,-2.22 8.71,-1.72 14.11,1.39zm43.03 76.53l1.57 -0.42 1.57 -2.72 0 -17.03c0,-20.39 -12.53,-44.21 -27.94,-53.11l-15.07 -8.71c-7.39,-4.26 -14.61,-4.72 -20.42,-1.39 -6.79,3.93 -10.68,12.68 -10.68,24.06l0 17.03 1.57 2.74 67.83 39.14 1.57 0.42z"/>
  <path class="fil12" d="M1703.86 4459.62c2.68,0 5.33,1.12 7.36,2.29 11.57,6.69 20.99,24.79 20.99,40.36 0,7.58 -2.26,13.24 -6.21,15.53 -3.96,2.26 -8.52,0.61 -11.63,-1.2 -11.56,-6.68 -20.97,-24.78 -20.97,-40.37 0,-7.56 2.26,-13.22 6.22,-15.49 1.37,-0.8 2.8,-1.12 4.24,-1.12zm17.91 65.57c2.63,0 5.11,-0.65 7.36,-1.94 5.96,-3.44 9.36,-11.08 9.36,-20.97 0,-17.86 -10.6,-38 -24.13,-45.81 -6.44,-3.72 -12.81,-4.13 -17.89,-1.19 -5.96,3.44 -9.37,11.08 -9.37,20.96 0,17.9 10.6,38.01 24.11,45.82 3.61,2.1 7.21,3.14 10.56,3.14z"/>
  <path class="fil17" d="M2242.37 4309.66l-406.07 -234.46c-15.07,-8.69 -27.29,-2.53 -27.29,13.81 0,16.32 12.21,36.59 27.28,45.29l406.08 234.46c15.07,8.69 27.29,2.52 27.29,-13.79 0,-16.33 -12.22,-36.61 -27.29,-45.31z"/>
  <path class="fil17" d="M2242.37 4428.01l-535.74 -309.46c-15.07,-8.69 -27.28,-2.53 -27.28,13.81 -0.02,16.32 12.2,36.59 27.28,45.29l535.74 309.46c15.07,8.71 27.29,2.53 27.29,-13.79 0,-16.32 -12.22,-36.61 -27.29,-45.3z"/>
  <path class="fil15" d="M2218.55 4546.67c-28.29,-16.32 -51.19,-3.08 -51.19,29.56 0,32.64 22.87,72.32 51.12,88.63 28.22,16.29 51.14,3.07 51.18,-29.56 0.03,-32.63 -22.85,-72.29 -51.11,-88.63z"/>
  <path class="fil17" d="M2099.79 4478.15l-274.87 -158.44c-9.06,-5.21 -16.28,-0.97 -16.14,9.47l0.07 5.35c0.11,10.44 7.56,23.14 16.6,28.36l274.36 158.4c9.04,5.22 16.36,0.99 16.36,-9.46l0 -5.35c0,-10.44 -7.33,-23.12 -16.37,-28.33z"/>
  <path class="fil16" d="M2104.16 4567.26l-420.5 -242.61c-6.64,-3.82 -11.94,-0.71 -11.85,6.93l0.06 3.93c0.1,7.65 5.56,16.96 12.17,20.79l420.13 242.58c6.64,3.82 12,0.72 12,-6.93l0 -3.93c0,-7.64 -5.37,-16.94 -12,-20.76z"/>
  <path class="fil8" d="M3433.8 5836.96c-11.97,-6.96 -28.5,-6.03 -46.72,4.5l-130.96 75.65c-15.58,8.97 -25.28,31.4 -25.28,48 0,16.6 0,76.92 0,83.37 0,24.47 -18.33,54.91 -40.92,67.94l-246.93 144.56c0,-14.82 0,-33.12 0,-48 0,-10.54 -4.26,-17.62 -10.78,-21.32 -8.36,-4.76 -54.79,-31.68 -61.25,-35.39 -8.37,-4.8 -20.51,-3.97 -32.09,2.39l-40.41 22.6 -9.72 5.57 -65.93 38.15c-3.6,2.07 -7.2,4.53 -10.6,7.26 -1.69,1.43 -3.29,2.93 -5,4.44 -21.26,19.94 -36.67,51.79 -36.67,78.82l0 1640.72c0,16.58 5.79,28.26 15.15,33.76 9.47,5.56 52.06,30.08 61.53,35.53 9.44,5.46 22.53,4.67 36.93,-3.71l678.17 -391.52c28.72,-16.54 52.26,-57.28 52.26,-90.54l0 -1624.7c0,-21.06 -7.47,-35.83 -19.51,-42.72 -10.97,-6.26 -50.33,-29.03 -61.28,-35.39z"/>
  <path class="fil25" d="M2930.55 6190.75c-8.32,-3.79 -19.56,-2.56 -30.33,3.29l-40.35 22.7 -9.74 5.57 -65.93 38.14c-3.59,2.08 -7.19,4.53 -10.58,7.28 -1.71,1.42 -3.3,2.93 -5.01,4.44 -7.18,6.71 -13.7,14.83 -19.18,23.63l-61.33 -35.44c5.47,-8.78 11.91,-16.92 19.1,-23.63 1.69,-1.51 3.29,-3.03 5,-4.44 3.4,-2.74 6.98,-5.19 10.58,-7.26l65.93 -38.15 9.74 -5.57 40.44 -22.58c11.53,-6.43 23.72,-7.28 32.04,-2.46 6.14,3.6 48,27.78 59.63,34.5z"/>
  <path class="fil25" d="M3495.13 5872.37c-11.9,-6.99 -28.44,-6.04 -46.68,4.54l-130.93 75.65c-7.56,4.25 -13.7,11.81 -18.06,20.32l-61.33 -35.44c4.36,-8.5 10.42,-15.96 17.96,-20.3l131.03 -75.65c18.15,-10.5 34.68,-11.44 46.68,-4.54 10.96,6.43 50.28,29.11 61.33,35.43z"/>
  <path class="fil29" d="M3210.76 6098.24l-0.11 -0.07c9.22,-11.32 16.21,-24.98 18.96,-38.08 -2.71,13.13 -9.61,26.87 -18.85,38.15z"/>
  <path class="fil27" d="M3272.08 6133.61l-61.32 -35.37c9.24,-11.28 16.14,-25.03 18.85,-38.15 0.82,-3.96 1.26,-7.86 1.26,-11.63l0 -83.33c0,-8.6 2.56,-18.71 7.26,-27.7l61.33 35.44c-4.7,8.97 -7.26,19.1 -7.26,27.69l0 83.33c0,16.25 -8.04,35.06 -20.12,49.71z"/>
  <path class="fil24" d="M3448.44 5876.91l0 0 -130.96 75.64c-15.58,8.97 -25.29,31.42 -25.29,48 0,16.61 0,76.92 0,83.38 0,24.48 -18.33,54.9 -40.92,67.94l-267.36 156.48c-22.58,13.03 -40.93,3.76 -40.93,-20.71 0,-4.43 0,-45.98 0,-74.65 0,-24.09 -22.24,-30.15 -42.76,-18.89l-40.39 22.59 -9.74 5.58 -65.93 38.14c-3.6,2.08 -7.18,4.53 -10.58,7.28 -1.71,1.42 -3.31,2.93 -5.02,4.44 -21.25,19.93 -36.67,51.78 -36.67,78.81l0 1640.74c0,33.36 23.44,46.87 52.26,30.14l678.17 -391.52c28.72,-16.54 52.26,-57.28 52.26,-90.54l0 -1624.7c0,-42.03 -29.78,-59.2 -66.15,-38.17z"/>
  <path class="fil8" d="M3477.84 5867.92c-8.86,0 -18.85,2.89 -29.41,8.98l-130.97 75.64c-15.57,8.97 -25.28,31.42 -25.28,48 0,16.61 0,76.92 0,83.38 0,24.48 -18.33,54.9 -40.92,67.94l-267.36 156.48c-6.94,4 -13.48,5.9 -19.22,5.9 -12.92,0 -21.71,-9.65 -21.71,-26.61 0,-4.43 0,-45.98 0,-74.65 0,-16.32 -10.19,-24.36 -23.14,-24.36 -6.18,0 -12.99,1.83 -19.63,5.47l-40.39 22.59 -9.74 5.58 -65.93 38.14c-3.6,2.08 -7.18,4.53 -10.58,7.28 -1.71,1.42 -3.31,2.93 -5.02,4.44 -21.25,19.93 -36.67,51.79 -36.67,78.81l0 1640.74c0,23.64 11.78,37.32 28.9,37.32 7.03,0 14.96,-2.31 23.36,-7.19l678.17 -391.52c28.72,-16.54 52.26,-57.28 52.26,-90.54l0 -1624.7c0,-29.85 -15.01,-47.15 -36.75,-47.15zm0 12.59c22.42,0 24.15,26.44 24.15,34.56l0 1624.7c0,28.82 -21.04,65.28 -45.96,79.63l-678.19 391.52c-6.17,3.59 -12.07,5.49 -17.04,5.49 -14.71,0 -16.3,-17.3 -16.3,-24.72l0 -1640.74c0,-22.94 13.44,-51.57 32.43,-69.39l1.76 -1.57 2.79 -2.48c2.87,-2.31 5.89,-4.39 8.98,-6.18l65.89 -38.11 9.63 -5.52 40.31 -22.56c4.59,-2.51 9.41,-3.9 13.56,-3.9 7.19,0 10.54,3.74 10.54,11.75l0 74.65c0,23.46 13.78,39.21 34.31,39.21 8.21,0 16.79,-2.56 25.58,-7.64l267.31 -156.43c26.47,-15.29 47.21,-49.93 47.21,-78.86l0 -83.38c0,-12.62 7.62,-30.54 18.98,-37.09l130.97 -75.64c8.25,-4.78 16.24,-7.29 23.1,-7.29z"/>
  <path class="fil14" d="M2837 7805.67l1.57 0.42 1.57 2.74 0 58.89 70.47 -40.69 -0.06 -62.48 1.57 -2.72 14.83 -8.56 -50.52 -27.87 -50.48 86.18 9.46 -5.47 1.59 -0.42zm0 70.64l-1.59 -0.41 -1.57 -2.74 0 -58.89 -15.06 8.69 -3.81 -0.5 -0.47 -3.8 58.06 -99.11c0.86,-1.48 2.74,-2.03 4.24,-1.17l58.08 32.06 1.63 2.72 -1.58 2.75 -18.08 10.44 0.07 62.49 -1.58 2.72 -76.76 44.33 -1.57 0.41z"/>
  <path class="fil14" d="M3107.26 7598.56c-3.14,0 -6.59,1.42 -10.17,4.18 -13.15,10.17 -22.48,34.28 -20.8,53.72 3.18,36.49 28.47,44.21 36.15,45.7l9.8 1.9 10.41 -14.58c7.97,-11.13 34.22,-50.57 37.53,-90.58 1.03,-12.52 -1.78,-22.89 -7.33,-27.09 -2.88,-2.18 -6.33,-2.57 -10.28,-1.08 -11.6,4.28 -22.67,22.41 -25.85,41.93l0.18 1.04 -0.67 1.94c-0.42,1.22 -1.59,2.11 -2.94,2.13l-0.04 0c-1.56,0 -2.87,-1.14 -3.13,-2.68 -1.22,-8.19 -4.62,-13.97 -9.29,-15.85l-3.57 -0.68zm16.35 112.14l-0.6 -0.07 -11.76 -2.3c-8.78,-1.7 -37.67,-10.46 -41.22,-51.33 -1.86,-21.33 8.56,-47.92 23.22,-59.26 6.78,-5.22 13.87,-6.79 19.93,-4.35 3.91,1.56 7.09,4.59 9.42,8.86 5.14,-17.97 16.03,-33.11 27.79,-37.44 5.88,-2.18 11.67,-1.5 16.26,1.97 7.36,5.57 11.03,17.76 9.79,32.63 -3.43,41.64 -30.46,82.26 -38.67,93.74l-11.6 16.24 -2.57 1.32z"/>
  <path class="fil14" d="M3388.51 7502.43l0.08 0 -0.08 0zm10.46 -0.03c-2.72,0 -5.72,0.93 -8.89,2.75l-15.07 8.69c-13.67,7.9 -24.81,29.29 -24.81,47.68l0 11.57 61.53 -35.53 0 -15.19c0,-9.07 -2.77,-15.85 -7.54,-18.61 -1.58,-0.92 -3.35,-1.36 -5.22,-1.36zm-51.91 79.29l-1.57 -0.42 -1.57 -2.72 0 -17.03c0,-20.4 12.53,-44.24 27.94,-53.13l15.07 -8.69c7.37,-4.26 14.63,-4.75 20.4,-1.41 6.79,3.92 10.7,12.7 10.7,24.07l0 17.02 -1.59 2.74 -67.8 39.15 -1.58 0.42z"/>
  <path class="fil14" d="M3389.91 7424.92c-2.68,0 -5.33,1.12 -7.36,2.29 -11.57,6.68 -20.99,24.78 -20.99,40.36 0,7.57 2.26,13.22 6.22,15.52 3.97,2.32 8.51,0.6 11.61,-1.18 11.56,-6.68 20.97,-24.79 20.97,-40.37 0,-7.57 -2.26,-13.22 -6.22,-15.5 -1.37,-0.79 -2.8,-1.11 -4.24,-1.11zm-17.9 65.57c-2.63,0 -5.13,-0.65 -7.37,-1.94 -5.96,-3.44 -9.36,-11.08 -9.36,-20.97 0,-17.89 10.6,-38.01 24.13,-45.8 6.44,-3.74 12.8,-4.13 17.89,-1.2 5.96,3.44 9.37,11.07 9.37,20.96 0,17.89 -10.58,38.01 -24.11,45.82 -3.61,2.1 -7.2,3.14 -10.54,3.14z"/>
  <path class="fil14" d="M2995.29 6703.28l247.96 -143.15c9.19,-5.31 16.65,-1.54 16.65,8.41 0,9.97 -7.46,22.36 -16.65,27.67l-247.96 143.15c-9.21,5.32 -16.67,1.54 -16.67,-8.42 0,-9.97 7.46,-22.36 16.67,-27.67z"/>
  <path class="fil14" d="M2955.7 6799.43l327.11 -188.96c9.19,-5.31 16.65,-1.53 16.65,8.43 0,9.97 -7.44,22.35 -16.65,27.67l-327.11 188.94c-9.2,5.31 -16.67,1.54 -16.67,-8.41 0,-9.97 7.46,-22.36 16.67,-27.67z"/>
  <path class="fil30" d="M2840.5 6999.81l274.87 -158.43c9.04,-5.21 16.28,-0.97 16.14,9.46l-0.07 5.36c-0.12,10.43 -7.56,23.13 -16.59,28.35l-274.36 158.41c-9.06,5.22 -16.37,0.98 -16.37,-9.46l0 -5.35c0,-10.43 7.33,-23.13 16.39,-28.33z"/>
  <path class="fil8" d="M2837.73 7103.92l586.93 -338.86c7.53,-4.35 13.65,-0.82 13.65,7.87l0 57.13c0,8.69 -6.11,19.28 -13.64,23.63l-586.82 338.92c-7.53,4.35 -13.64,0.83 -13.65,-7.86l-0.08 -57.2c-0.01,-8.69 6.08,-19.28 13.61,-23.62z"/>
  <path class="fil8" d="M2837.73 7339.66l586.93 -338.86c7.53,-4.35 13.65,-0.82 13.65,7.87l0 57.13c0,8.71 -6.11,19.28 -13.64,23.63l-586.82 338.93c-7.53,4.35 -13.64,0.82 -13.65,-7.87l-0.08 -57.18c-0.01,-8.71 6.08,-19.29 13.61,-23.64z"/>
  <path class="fil17" d="M2840.5 7235.54l274.87 -158.43c9.04,-5.21 16.28,-0.97 16.14,9.46l-0.07 5.36c-0.12,10.43 -7.56,23.13 -16.59,28.35l-274.36 158.41c-9.06,5.22 -16.37,1 -16.37,-9.44l0 -5.36c0,-10.43 7.33,-23.13 16.39,-28.33z"/>
  <path class="fil14" d="M2840.58 7515.85l223.08 -128.9c9.04,-5.22 16.37,-0.99 16.37,9.44l-0.01 80.4c0,10.44 -7.33,23.14 -16.36,28.36l-223.08 128.9c-9.04,5.22 -16.36,1 -16.36,-9.44l0 -80.4c0,-10.44 7.32,-23.14 16.36,-28.36z"/>
  <path class="fil14" d="M3198.77 7309l223.07 -128.9c9.04,-5.22 16.37,-1 16.37,9.44l-0.02 80.41c0,10.43 -7.33,23.12 -16.36,28.35l-223.07 128.92c-9.06,5.22 -16.37,0.98 -16.37,-9.46l0 -80.4c0,-10.43 7.32,-23.13 16.37,-28.35z"/>
  <path class="fil17" d="M2955.36 6496.88c-3.97,4.39 -7.37,9.15 -10.2,14.27 -2.84,5.13 -4.88,10.32 -6.35,15.72 -1.47,5.39 -2.27,10.56 -2.27,15.62 0,9.95 1.81,16.94 5.44,20.78 3.52,4.08 9.19,5 17.01,3.1 4.19,-1.03 7.82,-1.9 10.89,-2.8 3.06,-0.9 5.56,-1.29 7.48,-1.53 1.93,-0.06 3.4,0.13 4.42,0.77 1.02,0.63 1.48,1.76 1.48,3.51 0,3.49 -1.36,6.72 -3.97,9.46 -2.72,2.96 -6.12,5.63 -10.09,7.92 -2.27,1.31 -4.19,2.07 -5.67,2.05 -1.59,0.05 -2.84,-0.11 -3.86,-0.74 -1.02,-0.46 -1.93,-0.98 -2.49,-1.71 -0.57,-0.72 -1.02,-1.15 -1.36,-1.48 -0.57,-0.55 -1.25,-0.68 -1.81,-0.87 -0.57,-0.02 -1.47,0.33 -2.5,0.92l-14.85 8.58c-0.57,0.33 -1.13,1 -1.59,1.96 -0.57,1.2 -0.8,2.2 -0.8,3.26 0.11,4.3 1.02,8.14 2.72,11.52 1.7,3.38 4.2,5.78 7.26,7.33 3.06,1.72 6.69,2.42 10.89,2.09 4.2,-0.33 8.96,-2.03 14.06,-4.98 5.1,-2.95 9.75,-6.5 14.06,-10.74 4.19,-4.17 7.94,-8.94 11.11,-14.09 3.06,-5.09 5.56,-10.37 7.26,-16.07 1.7,-5.69 2.61,-11.45 2.61,-17.39 0,-5.41 -0.45,-10.04 -1.48,-13.47 -1.02,-3.43 -2.61,-6 -4.65,-7.79 -2.15,-1.72 -4.76,-2.66 -7.82,-2.81 -3.06,-0.16 -6.69,0.19 -10.89,1.39 -4.2,1.2 -7.6,1.94 -10.43,2.7 -2.84,0.77 -4.99,0.96 -6.69,0.89 -1.7,0.11 -2.95,-0.21 -3.63,-1.05 -0.79,-0.76 -1.13,-1.96 -1.13,-3.7 0,-1.75 0.34,-3.34 1.02,-4.96 0.57,-1.55 1.47,-2.94 2.49,-4.24 1.02,-1.11 2.15,-2.29 3.52,-3.43 1.25,-0.89 2.61,-1.85 4.08,-2.7 1.93,-1.11 3.63,-1.75 4.99,-2.01 1.36,-0.09 2.5,-0.05 3.4,0.3 0.91,0.35 1.59,0.83 2.16,1.37 0.45,0.61 0.8,0.94 1.02,1.16 0.68,0.48 1.36,0.78 2.04,0.91 0.57,0.2 1.48,-0.15 2.5,-0.74l14.86 -8.57c0.57,-0.33 1.13,-1 1.7,-2.2 0.45,-0.96 0.68,-1.96 0.68,-3.01 -0.11,-3.61 -0.91,-7.16 -2.61,-10.2 -1.7,-3.04 -3.97,-5.56 -6.92,-7.18 -2.95,-1.61 -6.46,-2.38 -10.43,-2.36 -4.08,0.26 -8.5,1.77 -13.38,4.59 -4.87,2.81 -9.3,6.42 -13.27,10.63z"/>
  <path class="fil17" d="M3034.62 6486.03c0,-1.22 -0.34,-2.25 -0.91,-2.79 -0.57,-0.55 -1.36,-0.61 -2.16,-0.15l-14.29 8.25c-0.8,0.46 -1.59,1.44 -2.15,2.64 -0.57,1.2 -0.91,2.62 -0.91,3.84l0 81.36c0,1.22 0.34,2.24 0.91,2.79 0.57,0.55 1.36,0.61 2.15,0.15l14.29 -8.25c0.8,-0.46 1.59,-1.44 2.16,-2.64 0.57,-1.2 0.91,-2.62 0.91,-3.84l0 -81.36zm0 -36.67c0,-1.22 -0.34,-2.25 -0.91,-2.79 -0.57,-0.55 -1.36,-0.61 -2.16,-0.15l-14.29 8.25c-0.8,0.46 -1.59,1.44 -2.15,2.64 -0.57,1.2 -0.91,2.62 -0.91,3.84l0 17.63c0,1.22 0.34,2.25 0.91,2.79 0.57,0.55 1.36,0.61 2.15,0.15l14.29 -8.25c0.8,-0.46 1.59,-1.44 2.16,-2.64 0.57,-1.2 0.91,-2.62 0.91,-3.84l0 -17.63zm35.72 112.59c-1.13,-0.57 -1.93,-1.33 -2.49,-2.57 -0.8,-1.81 -1.93,-2.38 -3.52,-1.46l-14.74 8.51c-0.8,0.46 -1.59,1.44 -2.16,2.64 -0.68,1.26 -1.02,2.69 -0.91,3.84 0.12,2.56 0.57,5.26 1.37,8.3 0.79,3.03 2.26,5.5 4.42,7.4 2.15,2.07 5.1,2.99 8.84,3.1 3.74,0.11 8.51,-1.42 14.41,-4.83 4.54,-2.62 8.73,-5.91 12.48,-9.65 3.74,-3.73 7.03,-8.25 9.75,-13.13 2.72,-4.89 4.88,-10.15 6.46,-16.13 1.48,-5.74 2.27,-11.96 2.27,-18.42l0 -85.03c0,-1.22 -0.34,-2.25 -0.91,-2.8 -0.57,-0.55 -1.36,-0.61 -2.15,-0.15l-13.15 7.59c-0.8,0.46 -1.59,1.44 -2.16,2.64 -0.57,1.2 -0.91,2.62 -0.91,3.84l0 4.02c-0.57,-0.72 -1.25,-1.55 -2.04,-2.31 -0.8,-0.76 -1.93,-1.16 -3.17,-1.48 -1.25,-0.33 -2.84,-0.28 -4.65,0.07 -1.81,0.35 -3.97,1.24 -6.46,2.69 -3.4,1.96 -6.58,4.67 -9.64,8.01 -3.07,3.34 -5.67,7.29 -7.94,11.74 -2.27,4.62 -4.08,9.69 -5.44,15.36 -1.48,5.91 -2.27,12.13 -2.39,18.83 -0.11,1.81 -0.11,3.91 -0.11,6.18 0,2.44 0,4.54 0.11,6.22 0.12,6.57 0.91,11.87 2.39,15.91 1.36,4.1 3.17,7.07 5.44,9.08 2.27,2.01 4.87,2.77 7.94,2.57 3.06,-0.2 6.24,-1.15 9.64,-3.12 2.5,-1.44 4.65,-3.04 6.35,-4.72 1.7,-1.5 3.06,-3.16 4.31,-4.93 1.13,-1.53 2.15,-3.34 2.94,-5.02 0.8,-1.68 1.48,-3.3 2.15,-4.91l0 12.22c0,4.02 -1.13,7.81 -3.29,10.98 -2.15,3.33 -4.76,5.89 -7.6,7.53 -2.61,1.5 -4.42,2.03 -5.44,1.4zm-1.7 -71.13c1.7,-3.6 4.08,-6.19 7.37,-8.09 3.06,-1.77 5.44,-1.92 7.15,-0.28 1.7,1.63 2.61,4.08 2.95,7.2 0.34,3.47 0.34,7.14 0,11 -0.34,3.52 -1.36,7.07 -2.95,10.61 -1.7,3.6 -4.08,6.37 -7.15,8.14 -3.29,1.9 -5.78,1.94 -7.37,0.24 -1.7,-1.64 -2.61,-4.61 -2.84,-8.49 -0.11,-1.68 -0.22,-3.01 -0.22,-4.23 0,-1.05 0.11,-2.51 0.22,-4.32 0.23,-4.15 1.14,-8.16 2.84,-11.76z"/>
  <path class="fil17" d="M3180.14 6435.38c0,-6.81 -0.57,-12.42 -1.81,-16.76 -1.25,-4.35 -2.83,-7.44 -4.99,-9.52 -2.16,-2.07 -4.76,-3.02 -7.83,-2.82 -3.06,0.2 -6.35,1.4 -9.98,3.5 -2.27,1.31 -4.2,2.77 -5.9,4.28 -1.7,1.68 -3.29,3.47 -4.54,5.06 -1.25,1.77 -2.38,3.65 -3.29,5.39 -0.91,1.75 -1.7,3.43 -2.27,4.98l0 -4.02c0,-1.22 -0.34,-2.25 -0.91,-2.8 -0.57,-0.55 -1.36,-0.61 -2.15,-0.15l-13.72 7.92c-0.8,0.46 -1.59,1.44 -2.16,2.64 -0.57,1.2 -0.91,2.62 -0.91,3.84l0 81.36c0,1.22 0.34,2.24 0.91,2.79 0.57,0.55 1.36,0.61 2.16,0.15l14.29 -8.25c0.8,-0.46 1.59,-1.44 2.15,-2.64 0.57,-1.2 0.91,-2.62 0.91,-3.84l0 -44.17c0,-5.06 0.79,-9.54 2.38,-13.42 1.47,-3.82 3.97,-6.83 7.37,-8.8 3.4,-1.96 5.9,-1.83 7.48,0.22 1.59,2.05 2.38,5.61 2.38,10.67l0 44.17c0,1.22 0.34,2.25 0.91,2.79 0.56,0.55 1.36,0.61 2.15,0.16l14.29 -8.25c0.8,-0.46 1.59,-1.44 2.16,-2.64 0.56,-1.2 0.91,-2.62 0.91,-3.84l0 -48.02z"/>
  <path class="fil17" d="M3237.18 6369.09c0,-1.22 -0.34,-2.25 -0.91,-2.8 -0.57,-0.55 -1.36,-0.61 -2.16,-0.15l-14.29 8.25c-0.8,0.46 -1.59,1.44 -2.15,2.64 -0.57,1.2 -0.91,2.62 -0.91,3.84l0 81.36c0,1.22 0.34,2.25 0.91,2.79 0.57,0.55 1.36,0.61 2.15,0.15l14.29 -8.25c0.8,-0.46 1.59,-1.44 2.16,-2.64 0.57,-1.2 0.91,-2.62 0.91,-3.84l0 -81.36zm0 -36.67c0,-1.22 -0.34,-2.25 -0.91,-2.8 -0.57,-0.55 -1.36,-0.61 -2.16,-0.15l-14.29 8.25c-0.8,0.46 -1.59,1.44 -2.15,2.64 -0.57,1.2 -0.91,2.62 -0.91,3.84l0 17.63c0,1.22 0.34,2.25 0.91,2.79 0.57,0.55 1.36,0.61 2.15,0.15l14.29 -8.25c0.8,-0.46 1.59,-1.44 2.16,-2.64 0.57,-1.2 0.91,-2.62 0.91,-3.84l0 -17.63zm73.6 27.52c0,-6.81 -0.56,-12.42 -1.81,-16.76 -1.25,-4.35 -2.83,-7.44 -4.99,-9.52 -2.16,-2.07 -4.76,-3.01 -7.83,-2.81 -3.06,0.2 -6.35,1.4 -9.98,3.5 -2.27,1.31 -4.2,2.77 -5.9,4.27 -1.7,1.69 -3.29,3.48 -4.54,5.07 -1.25,1.77 -2.38,3.65 -3.29,5.39 -0.91,1.75 -1.7,3.43 -2.27,4.98l0 -4.02c0,-1.22 -0.34,-2.25 -0.91,-2.79 -0.57,-0.55 -1.36,-0.61 -2.15,-0.16l-13.72 7.93c-0.8,0.46 -1.59,1.44 -2.16,2.64 -0.57,1.2 -0.91,2.62 -0.91,3.84l0 81.36c0,1.22 0.34,2.24 0.91,2.79 0.57,0.54 1.36,0.61 2.16,0.15l14.29 -8.25c0.8,-0.46 1.59,-1.44 2.15,-2.64 0.57,-1.2 0.91,-2.62 0.91,-3.84l0 -44.17c0,-5.06 0.79,-9.54 2.38,-13.42 1.48,-3.82 3.97,-6.83 7.37,-8.8 3.4,-1.96 5.9,-1.83 7.48,0.22 1.59,2.06 2.38,5.61 2.38,10.67l0 44.17c0,1.22 0.34,2.24 0.91,2.79 0.56,0.55 1.36,0.61 2.15,0.15l14.29 -8.25c0.8,-0.46 1.59,-1.44 2.15,-2.64 0.57,-1.2 0.91,-2.62 0.91,-3.84l0 -48.02z"/>
  <path class="fil8" d="M1352.86 4852.04c11.97,-6.96 28.5,-6.03 46.72,4.5l130.94 75.65c15.6,8.97 25.29,31.41 25.29,48 0,16.6 0,76.91 0,83.38 0,24.47 18.33,54.9 40.92,67.94l246.93 144.56c0,-14.82 0,-33.13 0,-48 0,-10.54 4.26,-17.64 10.78,-21.33 8.36,-4.75 54.79,-31.67 61.25,-35.37 8.36,-4.82 20.5,-3.97 32.08,2.37l40.42 22.61 9.72 5.57 65.93 38.14c3.6,2.08 7.18,4.54 10.6,7.28 1.69,1.41 3.29,2.93 5,4.44 21.26,19.94 36.67,51.79 36.67,78.82l0 1640.72c0,16.58 -5.79,28.26 -15.15,33.76 -9.47,5.57 -52.06,30.07 -61.53,35.53 -9.46,5.46 -22.51,4.65 -36.93,-3.71l-678.17 -391.53c-28.74,-16.54 -52.27,-57.26 -52.27,-90.53l0 -1624.69c0,-21.06 7.47,-35.85 19.5,-42.72 10.97,-6.28 50.33,-29.03 61.3,-35.39z"/>
  <path class="fil25" d="M1856.11 5205.81c8.31,-3.78 19.56,-2.54 30.32,3.32l40.36 22.67 9.74 5.58 65.93 38.14c3.6,2.07 7.2,4.53 10.58,7.28 1.71,1.41 3.31,2.93 5.02,4.44 7.18,6.7 13.69,14.83 19.18,23.63l61.33 -35.44c-5.48,-8.79 -11.91,-16.91 -19.08,-23.62 -1.71,-1.52 -3.3,-3.03 -5.01,-4.44 -3.42,-2.74 -6.99,-5.2 -10.58,-7.28l-65.93 -38.14 -9.74 -5.57 -40.46 -22.58c-11.53,-6.43 -23.72,-7.28 -32.03,-2.46 -6.15,3.58 -48,27.78 -59.63,34.48z"/>
  <path class="fil25" d="M1291.51 4887.44c11.92,-6.99 28.44,-6.04 46.7,4.54l130.93 75.65c7.56,4.25 13.7,11.81 18.04,20.32l61.33 -35.44c-4.35,-8.5 -10.4,-15.97 -17.96,-20.32l-131.02 -75.65c-18.15,-10.49 -34.68,-11.43 -46.68,-4.53 -10.97,6.41 -50.3,29.09 -61.35,35.43z"/>
  <path class="fil26" d="M1575.9 5113.3l0.11 -0.06c-9.3,-11.44 -16.35,-25.28 -19.04,-38.5 2.64,13.25 9.59,27.17 18.93,38.56z"/>
  <path class="fil27" d="M1514.58 5148.67l61.32 -35.37c-9.33,-11.39 -16.29,-25.31 -18.93,-38.56 -0.78,-3.8 -1.18,-7.57 -1.18,-11.2l0 -83.33c0,-8.61 -2.56,-18.72 -7.28,-27.69l-61.33 35.44c4.72,8.97 7.28,19.09 7.28,27.68l0 83.33c0,16.26 8.04,35.07 20.13,49.71z"/>
  <path class="fil24" d="M1338.22 4891.98l0 0 130.94 75.64c15.6,8.97 25.31,31.4 25.31,48 0,16.59 0,76.92 0,83.37 0,24.47 18.33,54.9 40.92,67.94l267.36 156.47c22.59,13.04 40.92,3.78 40.92,-20.7 0,-4.44 0,-45.98 0,-74.65 0,-24.1 22.25,-30.15 42.76,-18.91l40.41 22.61 9.73 5.58 65.93 38.12c3.6,2.09 7.17,4.54 10.58,7.28 1.71,1.42 3.31,2.93 5.02,4.44 21.25,19.94 36.67,51.79 36.67,78.82l0 1640.74c0,33.36 -23.44,46.86 -52.26,30.14l-678.17 -391.53c-28.74,-16.54 -52.27,-57.26 -52.27,-90.53l0 -1624.69c0,-42.03 29.78,-59.21 66.15,-38.17z"/>
  <path class="fil8" d="M1308.8 4882.99c8.88,0 18.86,2.87 29.42,8.98l130.94 75.64c15.6,8.97 25.31,31.4 25.31,48 0,16.59 0,76.92 0,83.37 0,24.47 18.33,54.9 40.92,67.94l267.36 156.47c6.94,4.01 13.49,5.9 19.22,5.9 12.92,0 21.69,-9.64 21.69,-26.6 0,-4.44 0,-45.98 0,-74.65 0,-16.32 10.21,-24.36 23.15,-24.36 6.19,0 12.98,1.83 19.61,5.46l40.41 22.61 9.73 5.58 65.93 38.12c3.6,2.09 7.17,4.54 10.58,7.28 1.71,1.42 3.31,2.93 5.02,4.44 21.25,19.94 36.67,51.79 36.67,78.82l0 1640.74c0,23.64 -11.78,37.32 -28.9,37.32 -7.03,0 -14.97,-2.3 -23.36,-7.18l-678.17 -391.53c-28.74,-16.53 -52.27,-57.26 -52.27,-90.53l0 -1624.69c0,-29.85 15.02,-47.15 36.74,-47.15zm0 12.6c-22.4,0 -24.14,26.44 -24.14,34.56l0 1624.69c0,28.82 21.04,65.28 45.96,79.63l678.19 391.53c6.17,3.58 12.06,5.48 17.04,5.48 14.7,0 16.29,-17.29 16.29,-24.72l0 -1640.74c0,-22.94 -13.43,-51.57 -32.43,-69.4l-1.72 -1.54 -2.82 -2.5c-2.88,-2.3 -5.91,-4.39 -8.99,-6.18l-65.89 -38.11 -9.62 -5.51 -40.31 -22.56c-4.6,-2.53 -9.42,-3.91 -13.56,-3.91 -7.19,0 -10.54,3.74 -10.54,11.76l0 74.65c0,23.44 -13.79,39.21 -34.3,39.21 -8.21,0 -16.78,-2.56 -25.58,-7.64l-267.29 -156.43c-26.49,-15.29 -47.22,-49.93 -47.22,-78.86l0 -83.37c0,-12.63 -7.63,-30.54 -19,-37.08l-130.96 -75.65c-8.25,-4.78 -16.24,-7.29 -23.11,-7.29z"/>
  <path class="fil14" d="M1949.66 6820.76l-1.57 0.4 -1.57 2.74 0 58.88 -70.49 -40.7 0.07 -62.47 -1.57 -2.72 -14.83 -8.56 50.5 -27.89 50.5 86.18 -9.47 -5.46 -1.57 -0.4zm0 70.61l1.57 -0.42 1.58 -2.72 0 -58.89 15.06 8.68 3.81 -0.5 0.47 -3.81 -58.06 -99.11c-0.86,-1.47 -2.76,-2.03 -4.24,-1.17l-58.09 32.07 -1.62 2.72 1.57 2.75 18.1 10.44 -0.07 62.47 1.59 2.72 76.76 44.33 1.57 0.42z"/>
  <path class="fil14" d="M1679.41 6613.62c3.12,0 6.57,1.42 10.15,4.18 13.15,10.17 22.49,34.28 20.81,53.72 -3.18,36.5 -28.47,44.22 -36.15,45.71l-9.79 1.9 -10.42 -14.59c-7.97,-11.13 -34.22,-50.5 -37.53,-90.59 -1.03,-12.5 1.78,-22.87 7.33,-27.08 2.87,-2.19 6.35,-2.56 10.26,-1.08 11.6,4.28 22.68,22.42 25.86,41.93l-0.18 1.04 0.65 1.93c0.42,1.25 1.59,2.14 2.96,2.15l0.04 0c1.56,0 2.87,-1.14 3.11,-2.68 1.24,-8.19 4.63,-13.98 9.29,-15.86l3.6 -0.68zm-16.38 112.14l0.6 -0.06 11.78 -2.29c8.78,-1.71 37.67,-10.46 41.22,-51.35 1.86,-21.33 -8.56,-47.92 -23.22,-59.26 -6.79,-5.24 -13.85,-6.76 -19.94,-4.35 -3.89,1.56 -7.07,4.61 -9.41,8.88 -5.14,-17.97 -16.03,-33.11 -27.79,-37.46 -5.91,-2.21 -11.68,-1.48 -16.26,1.99 -7.36,5.57 -11.03,17.78 -9.79,32.62 3.43,41.7 30.46,82.26 38.67,93.72l11.59 16.25 2.56 1.31z"/>
  <path class="fil14" d="M1398.15 6517.51l-0.09 0 0.09 0zm-10.46 -0.03c2.72,0 5.71,0.93 8.89,2.75l15.07 8.69c13.67,7.91 24.8,29.29 24.8,47.68l0 11.57 -61.53 -35.53 0 -15.2c0,-9.07 2.76,-15.85 7.54,-18.61 1.58,-0.92 3.35,-1.36 5.22,-1.36zm51.92 79.3l1.57 -0.42 1.57 -2.72 0 -17.03c0,-20.4 -12.53,-44.24 -27.96,-53.13l-15.07 -8.69c-7.36,-4.26 -14.61,-4.75 -20.39,-1.4 -6.81,3.92 -10.7,12.69 -10.7,24.07l0 17.02 1.57 2.74 67.82 39.15 1.58 0.42z"/>
  <path class="fil14" d="M1396.74 6439.99c2.68,0 5.32,1.11 7.36,2.29 11.57,6.68 20.99,24.78 20.99,40.36 0,7.57 -2.26,13.24 -6.24,15.51 -3.96,2.32 -8.5,0.6 -11.61,-1.18 -11.56,-6.69 -20.96,-24.8 -20.96,-40.37 0,-7.58 2.26,-13.22 6.22,-15.51 1.36,-0.78 2.79,-1.1 4.24,-1.1zm17.91 65.57c2.64,0 5.12,-0.65 7.37,-1.94 5.96,-3.44 9.36,-11.08 9.36,-20.97 0,-17.89 -10.6,-38.02 -24.14,-45.81 -6.43,-3.74 -12.76,-4.15 -17.9,-1.19 -5.94,3.43 -9.35,11.07 -9.35,20.96 0,17.87 10.58,38 24.11,45.82 3.61,2.1 7.18,3.14 10.54,3.14z"/>
  <path class="fil14" d="M1791.37 5718.35l-247.96 -143.17c-9.2,-5.3 -16.65,-1.53 -16.65,8.43 0,9.97 7.46,22.35 16.65,27.67l247.96 143.15c9.21,5.32 16.67,1.54 16.67,-8.43 0,-9.96 -7.46,-22.35 -16.67,-27.65z"/>
  <path class="fil14" d="M1830.95 5814.51l-327.11 -188.96c-9.21,-5.31 -16.67,-1.54 -16.67,8.43 0,9.96 7.44,22.35 16.67,27.65l327.11 188.96c9.2,5.3 16.67,1.54 16.67,-8.43 0,-9.96 -7.47,-22.35 -16.67,-27.65z"/>
  <path class="fil12" d="M1946.16 6014.88l-274.87 -158.44c-9.04,-5.21 -16.28,-0.96 -16.14,9.47l0.07 5.35c0.13,10.44 7.56,23.14 16.6,28.36l274.36 158.4c9.06,5.22 16.37,0.99 16.37,-9.46l0 -5.35c0,-10.44 -7.33,-23.12 -16.39,-28.33z"/>
  <path class="fil8" d="M1948.91 6118.99l-586.92 -338.86c-7.53,-4.35 -13.65,-0.82 -13.65,7.88l0 57.12c0,8.7 6.11,19.28 13.64,23.63l586.82 338.92c7.54,4.36 13.64,0.83 13.65,-7.87l0.08 -57.18c0.02,-8.71 -6.09,-19.28 -13.62,-23.63z"/>
  <path class="fil8" d="M1948.91 6354.73l-586.92 -338.86c-7.53,-4.35 -13.65,-0.82 -13.65,7.87l0 57.13c0,8.7 6.11,19.28 13.64,23.63l586.82 338.92c7.54,4.36 13.64,0.83 13.65,-7.87l0.08 -57.18c0.02,-8.7 -6.09,-19.28 -13.62,-23.63z"/>
  <path class="fil12" d="M1946.16 6250.62l-274.87 -158.43c-9.04,-5.21 -16.28,-0.98 -16.14,9.46l0.07 5.36c0.13,10.43 7.56,23.12 16.6,28.35l274.36 158.4c9.06,5.22 16.37,0.98 16.37,-9.44l0 -5.36c0,-10.44 -7.33,-23.12 -16.39,-28.33z"/>
  <path class="fil14" d="M1946.06 6530.92l-223.07 -128.9c-9.06,-5.22 -16.37,-1 -16.37,9.44l0.01 80.4c0,10.44 7.32,23.14 16.36,28.36l223.07 128.9c9.06,5.22 16.38,0.99 16.38,-9.44l0 -80.4c0,-10.44 -7.32,-23.14 -16.38,-28.36z"/>
  <path class="fil14" d="M1587.89 6324.06l-223.07 -128.91c-9.06,-5.22 -16.37,-0.98 -16.37,9.44l0.01 80.41c0,10.44 7.32,23.14 16.36,28.36l223.07 128.91c9.06,5.22 16.37,1 16.37,-9.44l0 -80.41c0,-10.44 -7.32,-23.14 -16.37,-28.36z"/>
  <path class="fil31" d="M2314.15 5939.18c-15.89,-10.33 -20.48,-31.63 -10.07,-47.55 10.3,-15.91 31.58,-20.45 47.57,-10.13 15.91,10.3 20.35,31.6 10.08,47.52 -10.3,15.94 -31.56,20.48 -47.57,10.15z"/>
  <polygon class="fil32" points="4114.97,5956.84 4112.96,5955.69 4112.96,5955.69 "/>
  <path class="fil1" d="M3731.67 5936.22c1.44,-5.47 3.37,-10.94 5.72,-16.34 -2.39,5.34 -4.35,10.82 -5.79,16.34l0.07 0z"/>
  <path class="fil32" d="M3729.42 5947.4c0.51,-3.68 1.26,-7.43 2.24,-11.17l-0.07 0c-0.97,3.73 -1.71,7.45 -2.17,11.17z"/>
  <path class="fil33" d="M3820.76 7910.78l61.89 -629.33c54.27,-167 169.01,-299.59 347.29,-282.85l-164.67 413.7 -145.53 571.19 -28.05 -78.62c-22.69,-13.1 -70.93,32.09 -70.93,5.91z"/>
  <path class="fil34" d="M4735.02 7077.94c41.96,18.78 65.64,79.17 82.47,121.95 15,38.09 44.02,134.41 44.02,207.25l62.02 699.9 -652.19 313.22 -365.64 -476.07c0,0 47.16,-467.59 47.16,-616.23 0,-6.72 0.18,-13.52 0.51,-20.42 7.81,-155.64 122.22,-275.49 263.83,-307.52 51.59,-11.66 359.88,28.08 359.88,28.08l157.93 49.84z"/>
  <path class="fil35" d="M4497.8 6378.84c0,144.85 -117.41,262.27 -262.25,262.27 -144.85,0 -262.28,-117.43 -262.28,-262.27 0,-144.85 117.42,-262.26 262.28,-262.26 144.84,0 262.25,117.41 262.25,262.26z"/>
  <path class="fil35" d="M4688.89 6565.33c0,0 -42.5,199.65 -59.55,232.45 -17.05,32.81 -52.25,42.14 -52.25,42.14l2.97 -140.46 108.83 -134.13z"/>
  <path class="fil36" d="M4584.84 6574.59c16.05,9.58 38.94,-21.26 58.74,-41.98 19.8,-20.71 84.42,-49 116.65,18.93 32.86,69.21 -28.44,160.68 -79.31,176.64 -87.67,27.53 -100.85,-28.71 -100.85,-28.71l-6.44 354.66c-109.03,139.77 -411.56,129.1 -285.51,-16.9l0.24 -126.11c0,0 -79.43,12.06 -118.18,6.07 -64.49,-9.97 -105.06,-60.85 -124.61,-130.64 -31.41,-112.11 -43.36,-202.62 -16.7,-423.11 29.2,-241.64 310.27,-244.16 462.06,-148.61 151.79,95.52 93.91,359.77 93.91,359.77z"/>
  <path class="fil37" d="M4288.35 6911.11c0,0 143.94,-29 194.26,-55.73 33.67,-17.91 61.41,-48.94 69.56,-68.83 0,0 -9.44,42.7 -39.53,81.18 -36.8,47.04 -224.3,81.69 -224.3,81.69l0 -38.31z"/>
  <path class="fil35" d="M4295.41 6538.59c0,16.56 12.9,29.93 28.82,29.88 15.93,-0.05 28.86,-13.47 28.86,-30.04 0,-16.56 -12.93,-29.93 -28.86,-29.88 -15.92,0.02 -28.82,13.48 -28.82,30.04z"/>
  <path class="fil35" d="M4325.98 6429.7l61.71 34.05c9.09,-17.73 2.66,-39.73 -14.38,-49.12 -17.03,-9.43 -38.22,-2.66 -47.33,15.07z"/>
  <path class="fil38" d="M4255.46 6741.83l-120.09 19.28c4.57,34.22 35.15,57.67 68.3,52.34 33.21,-5.33 56.37,-37.41 51.8,-71.63z"/>
  <path class="fil35" d="M4046.54 6453.7l56.29 -43.34c-11.51,-16.11 -33.39,-19.46 -48.93,-7.52 -15.54,11.97 -18.84,34.74 -7.36,50.86z"/>
  <path class="fil35" d="M4063.88 6530.36c0,16.56 12.9,29.95 28.84,29.91 15.92,-0.04 28.84,-13.5 28.84,-30.04 0,-16.56 -12.93,-29.95 -28.84,-29.91 -15.94,0.04 -28.84,13.5 -28.84,30.04z"/>
  <polygon class="fil37" points="4210.83,6503.03 4201.35,6676.48 4161.48,6649.53 4107.33,6674.37 "/>
  <path class="fil39" d="M3645.65 7871.39l-0.46 0.05 22.16 -19.11 0.03 0.29c5.01,-4.01 12.77,-5.28 22.79,-2.55l240.15 65.31c22.26,6.05 46.42,28.64 53.96,50.43l172.82 498.61c4.02,11.55 2.42,20.44 -3.17,25.47l0.19 0.04 -22.87 19.71 0.02 -0.29c-4.98,4.17 -12.86,5.48 -23.03,2.71l-240.13 -65.28c-22.26,-6.06 -46.44,-28.64 -53.98,-50.43 -33.94,-98.01 -138.89,-400.65 -172.83,-498.61 -4.25,-12.3 -2.15,-21.55 4.35,-26.34z"/>
  <path class="fil33" d="M4134.88 8483.58l-172.82 -498.61c-7.54,-21.79 -31.7,-44.38 -53.98,-50.43l-240.13 -65.31c-22.26,-6.07 -34.19,6.7 -26.65,28.51 33.94,97.98 138.89,400.61 172.83,498.61 7.53,21.79 31.72,44.37 53.98,50.43l240.13 65.28c22.28,6.05 34.19,-6.7 26.65,-28.48z"/>
  <path class="fil39" d="M3934.23 7948.39c12.51,9.87 23.26,23.48 27.85,36.64l172.89 498.44c3.73,11.2 2.64,19.98 -2.41,25l21.5 -18.42 -0.22 -0.2c5.72,-5.05 7.25,-13.83 3.3,-25.47l-172.89 -498.68c-4.17,-12.28 -14.03,-24.79 -25.67,-34.65l-24.35 17.34z"/>
  <path class="fil36" d="M5147.16 8363.58l-223.61 -256.54c0,0 -611.16,96.55 -679.57,97.63 -68.43,1.09 -118.46,-63.67 -162.78,-120.22 -21.08,-26.92 -67.21,-33.01 -67.21,-33.01l23.9 68.94c2.73,7.87 -28.97,18.56 -32.92,19.87 -20.79,6.92 -41.79,10.33 -63.63,10.8 -48.17,1.06 -96.58,-7.94 -141.17,-26.29 -24.89,-10.24 -49.12,-23.52 -75.82,-27.05 -4.56,-0.6 -9.51,-0.84 -13.48,1.53 -6.65,4.01 -7.42,13.21 -7.19,20.97 2.59,81.37 36.19,161.38 92.47,220.22 12.35,12.9 25.76,24.85 40.41,35.04 81.22,56.51 181.91,55.91 276.46,49.59 35.76,-2.37 71.25,-3.74 107.1,-4.04 225.34,-1.93 823.07,-31.86 927.04,-57.46z"/>
  <path class="fil40" d="M4404.91 8185.34l-160.94 19.33c31.44,38.15 54.67,163.62 26.63,215.58l198.19 0c20.51,-90.82 12.46,-173.11 -63.87,-234.92z"/>
  <path class="fil33" d="M4888.83 8062.87c48.57,-8.41 -150.75,32.65 -271.41,56.04 -107.56,20.81 -202.69,33.34 -212.51,66.43 0,0 63.87,138.18 44.69,229.33 0,0 12.35,17.22 115.94,22.12 103.59,4.9 539.25,-24.45 597.42,-57.72 58.15,-33.27 79.03,-75.26 64.04,-168.46l-338.18 -147.75z"/>
  <path class="fil33" d="M5227.01 8210.62c-1.26,-17.62 -50.57,-472.14 -111.55,-790.48 -41.13,-214.7 -153.85,-310.25 -321.42,-336.19l-59.26 -9.18c-104.41,65.46 -23.96,393.96 80.72,572.7l62.05 471.41 275.44 232.61c82.27,-16.31 75.81,-116.05 74.02,-140.88z"/>
  <path class="fil32" d="M3251.87 6247.56c18.36,0 36.76,-4.06 50.79,-12.17l41.39 -23.9c28.07,-16.21 50.84,-55.63 50.84,-88.04l0 0c0,32.41 -22.77,71.83 -50.84,88.04l-41.39 23.9c-14.03,8.09 -32.43,12.15 -50.83,12.15 -8.3,0 -16.61,-0.82 -24.5,-2.48 7.91,1.66 16.23,2.5 24.54,2.5z"/>
  <ellipse class="fil41" transform="matrix(1.59403 -0.0818364 -0.288844 1.61306 4319.53 7252.26)" rx="10.42" ry="25.39"/>
  <ellipse class="fil41" transform="matrix(1.58639 -0.0818364 -0.138332 1.61306 4298.37 7464.27)" rx="10.42" ry="25.39"/>
  <ellipse class="fil41" transform="matrix(1.58639 -0.0818364 -0.138332 1.61306 4288.64 7660.81)" rx="10.42" ry="25.39"/>
  <path class="fil42" d="M4015.15 6521.07c0,0 -0.11,-218.94 55.31,-187.08 55.43,31.87 147.89,3.22 147.89,3.22l-55.05 82.69c0,0 113.61,-67.9 173.19,-47.11 59.57,20.79 -6.87,51.19 -6.87,51.19 0,0 51.79,-41.12 95.54,8.39 43.75,49.5 71.04,25.67 112.23,181.5 41.19,155.83 41.19,155.83 41.19,155.83 0,0 -31,-71.8 17,-154.44 48,-82.65 89.22,-130.88 123.29,-103.81 34.06,27.07 -42.23,-11.87 20.12,-111.63 62.35,-99.76 102.53,-108.07 34.64,-145.48 -67.89,-37.41 -2.01,42.46 -72.47,-116.15 -26.68,-60.06 -649.33,-186.69 -757.95,83.69 -58.48,145.58 71.94,299.2 71.94,299.2z"/>
  <path class="fil43" d="M4278.33 6505.85l72.08 -7.3c0,0 -38.56,-33.74 -72.08,7.3z"/>
  <path class="fil43" d="M4119.36 6495.11l-69.24 3.91c0,0 31.4,-37.68 69.24,-3.91z"/>
  <rect class="fil44" x="-1167.07" y="1693.88" width="9055.56" height="8333.33"/>
 </g>
</svg>
